<svg width="1363" height="301" viewBox="0 0 1363 301" fill="none" xmlns="http://www.w3.org/2000/svg">
<rect width="1363" height="301" rx="15" fill="#F0F0F0"/>
<path d="M0 15C0 6.71573 6.71573 0 15 0H37V301H15C6.71573 301 0 294.284 0 286V15Z" fill="#0BA3D3" fill-opacity="0.65"/>
<path d="M115.123 133.607C115.123 132.998 115.033 132.452 114.854 131.969C114.675 131.467 114.344 131.002 113.86 130.572C113.377 130.143 112.679 129.713 111.766 129.283C110.87 128.836 109.689 128.37 108.221 127.887C106.502 127.314 104.846 126.669 103.252 125.953C101.659 125.219 100.236 124.369 98.9824 123.402C97.7292 122.417 96.7355 121.271 96.0015 119.964C95.2674 118.639 94.9004 117.1 94.9004 115.345C94.9004 113.662 95.2764 112.149 96.0283 110.807C96.7803 109.446 97.8276 108.291 99.1704 107.342C100.531 106.375 102.125 105.641 103.951 105.14C105.777 104.621 107.773 104.361 109.939 104.361C112.804 104.361 115.328 104.863 117.513 105.865C119.715 106.85 121.434 108.255 122.669 110.082C123.922 111.89 124.549 114.029 124.549 116.5H115.176C115.176 115.515 114.97 114.647 114.559 113.895C114.165 113.143 113.565 112.552 112.759 112.123C111.954 111.693 110.942 111.478 109.725 111.478C108.543 111.478 107.549 111.657 106.744 112.015C105.938 112.373 105.329 112.857 104.917 113.465C104.506 114.056 104.3 114.71 104.3 115.426C104.3 116.017 104.461 116.554 104.783 117.037C105.123 117.503 105.598 117.941 106.207 118.353C106.833 118.765 107.585 119.159 108.462 119.535C109.358 119.911 110.36 120.278 111.47 120.636C113.547 121.298 115.391 122.041 117.002 122.865C118.632 123.67 120.001 124.592 121.111 125.631C122.239 126.651 123.09 127.815 123.663 129.122C124.253 130.429 124.549 131.906 124.549 133.553C124.549 135.308 124.209 136.865 123.528 138.226C122.848 139.587 121.872 140.742 120.601 141.69C119.33 142.621 117.808 143.329 116.036 143.812C114.263 144.295 112.285 144.537 110.101 144.537C108.095 144.537 106.117 144.286 104.166 143.785C102.232 143.266 100.477 142.478 98.9019 141.422C97.3263 140.348 96.0641 138.978 95.1152 137.313C94.1842 135.63 93.7188 133.634 93.7188 131.324H103.172C103.172 132.47 103.324 133.437 103.628 134.225C103.933 135.012 104.38 135.648 104.971 136.131C105.562 136.597 106.287 136.937 107.146 137.152C108.006 137.349 108.991 137.447 110.101 137.447C111.3 137.447 112.267 137.277 113.001 136.937C113.735 136.579 114.272 136.113 114.612 135.541C114.952 134.95 115.123 134.305 115.123 133.607ZM144.073 136.695V124.718C144.073 123.894 143.956 123.187 143.724 122.596C143.491 122.005 143.124 121.549 142.623 121.227C142.121 120.886 141.45 120.716 140.608 120.716C139.928 120.716 139.346 120.833 138.863 121.065C138.379 121.298 138.012 121.647 137.762 122.113C137.511 122.578 137.386 123.169 137.386 123.885H128.335C128.335 122.542 128.631 121.298 129.222 120.152C129.83 118.989 130.69 117.977 131.8 117.118C132.928 116.258 134.271 115.596 135.828 115.13C137.404 114.647 139.158 114.405 141.092 114.405C143.401 114.405 145.46 114.79 147.269 115.56C149.095 116.33 150.536 117.485 151.592 119.024C152.649 120.546 153.177 122.462 153.177 124.771V136.668C153.177 138.566 153.284 140.007 153.499 140.992C153.714 141.959 154.018 142.809 154.412 143.543V144H145.335C144.905 143.105 144.583 142.013 144.368 140.724C144.171 139.417 144.073 138.074 144.073 136.695ZM145.174 126.249L145.228 131.083H141.226C140.385 131.083 139.668 131.199 139.078 131.432C138.505 131.664 138.039 131.987 137.681 132.398C137.341 132.792 137.09 133.24 136.929 133.741C136.786 134.243 136.714 134.771 136.714 135.326C136.714 135.863 136.84 136.346 137.09 136.776C137.359 137.188 137.717 137.51 138.165 137.743C138.612 137.975 139.113 138.092 139.668 138.092C140.671 138.092 141.521 137.904 142.22 137.528C142.936 137.134 143.482 136.66 143.858 136.104C144.234 135.549 144.422 135.03 144.422 134.547L146.409 138.253C146.051 138.969 145.639 139.694 145.174 140.428C144.726 141.162 144.162 141.843 143.482 142.469C142.819 143.078 142.005 143.579 141.038 143.973C140.071 144.349 138.899 144.537 137.52 144.537C135.73 144.537 134.083 144.17 132.579 143.436C131.093 142.702 129.902 141.681 129.007 140.375C128.112 139.05 127.664 137.528 127.664 135.809C127.664 134.305 127.933 132.962 128.47 131.781C129.025 130.599 129.857 129.597 130.967 128.773C132.077 127.949 133.492 127.323 135.21 126.893C136.929 126.463 138.952 126.249 141.28 126.249H145.174ZM169.29 144H160.186V112.579C160.186 110.323 160.643 108.425 161.556 106.886C162.469 105.346 163.758 104.182 165.423 103.395C167.088 102.589 169.057 102.186 171.331 102.186C172.119 102.186 172.862 102.24 173.56 102.347C174.258 102.455 174.939 102.589 175.601 102.75L175.628 109.41C175.306 109.321 174.974 109.258 174.634 109.222C174.294 109.186 173.873 109.168 173.372 109.168C172.495 109.168 171.752 109.303 171.143 109.571C170.534 109.822 170.069 110.207 169.747 110.726C169.442 111.227 169.29 111.845 169.29 112.579V144ZM174.93 114.942V121.227H155.997V114.942H174.93ZM191.607 144.537C189.244 144.537 187.131 144.17 185.269 143.436C183.407 142.684 181.832 141.655 180.542 140.348C179.271 139.041 178.296 137.537 177.615 135.836C176.953 134.135 176.622 132.336 176.622 130.438V129.417C176.622 127.287 176.917 125.318 177.508 123.509C178.099 121.683 178.976 120.09 180.14 118.729C181.303 117.368 182.763 116.312 184.517 115.56C186.272 114.79 188.313 114.405 190.64 114.405C192.699 114.405 194.543 114.736 196.172 115.399C197.802 116.061 199.18 117.01 200.308 118.246C201.454 119.481 202.322 120.976 202.913 122.73C203.522 124.485 203.826 126.454 203.826 128.639V132.318H180.086V126.651H194.991V125.953C195.009 124.986 194.839 124.163 194.48 123.482C194.14 122.802 193.639 122.283 192.977 121.925C192.314 121.567 191.508 121.388 190.56 121.388C189.575 121.388 188.76 121.603 188.116 122.032C187.489 122.462 186.997 123.053 186.639 123.805C186.299 124.539 186.057 125.389 185.914 126.356C185.77 127.323 185.699 128.343 185.699 129.417V130.438C185.699 131.512 185.842 132.488 186.128 133.365C186.433 134.243 186.862 134.994 187.417 135.621C187.99 136.23 188.671 136.704 189.458 137.044C190.264 137.385 191.177 137.555 192.198 137.555C193.433 137.555 194.651 137.322 195.85 136.856C197.05 136.391 198.079 135.621 198.938 134.547L203.047 139.435C202.457 140.276 201.615 141.091 200.523 141.878C199.449 142.666 198.16 143.311 196.656 143.812C195.152 144.295 193.469 144.537 191.607 144.537ZM217.066 102.75V144H207.989V102.75H217.066ZM231.568 140.589L239.087 114.942H248.809L237.127 148.324C236.876 149.058 236.545 149.846 236.133 150.687C235.722 151.546 235.158 152.361 234.441 153.131C233.725 153.901 232.803 154.527 231.675 155.011C230.565 155.494 229.187 155.736 227.54 155.736C226.662 155.736 226.018 155.691 225.606 155.602C225.212 155.53 224.603 155.396 223.78 155.199V148.727C224.013 148.727 224.209 148.727 224.371 148.727C224.55 148.727 224.747 148.727 224.961 148.727C225.928 148.727 226.698 148.628 227.271 148.431C227.862 148.234 228.309 147.948 228.614 147.572C228.936 147.196 229.187 146.739 229.366 146.202L231.568 140.589ZM229.661 114.942L235.381 135.272L236.375 144.859H230.306L219.966 114.942H229.661Z" fill="black"/>
<path d="M110.816 65.2515V69.2505H97.8276V65.2515H110.816ZM99.3486 55.1172V80H94.2217V55.1172H99.3486ZM114.473 55.1172V80H109.363V55.1172H114.473ZM129.563 75.5737V61.5088H134.485V80H129.854L129.563 75.5737ZM130.11 71.7798L131.563 71.7456C131.563 72.9761 131.421 74.1211 131.136 75.1807C130.851 76.2288 130.424 77.1403 129.854 77.915C129.284 78.6784 128.567 79.2765 127.701 79.7095C126.835 80.131 125.815 80.3418 124.642 80.3418C123.742 80.3418 122.91 80.2165 122.146 79.9658C121.395 79.7038 120.745 79.2993 120.198 78.7524C119.663 78.1942 119.241 77.4821 118.934 76.6162C118.637 75.7389 118.489 74.6851 118.489 73.4546V61.5088H123.411V73.4888C123.411 74.0356 123.474 74.4971 123.599 74.873C123.736 75.249 123.924 75.5566 124.163 75.7959C124.402 76.0352 124.681 76.2061 125 76.3086C125.331 76.4111 125.695 76.4624 126.094 76.4624C127.108 76.4624 127.906 76.2573 128.487 75.8472C129.079 75.437 129.495 74.8787 129.734 74.1724C129.985 73.4546 130.11 72.6571 130.11 71.7798ZM149.166 75.9668V53.75H154.122V80H149.661L149.166 75.9668ZM137.476 70.9766V70.6177C137.476 69.2049 137.636 67.9232 137.955 66.7725C138.274 65.6104 138.741 64.6134 139.356 63.7817C139.971 62.95 140.729 62.3063 141.629 61.8506C142.529 61.3949 143.554 61.167 144.705 61.167C145.787 61.167 146.733 61.3949 147.542 61.8506C148.362 62.3063 149.057 62.9557 149.627 63.7988C150.208 64.6305 150.675 65.616 151.028 66.7554C151.382 67.8833 151.638 69.1195 151.797 70.4639V71.25C151.638 72.5374 151.382 73.7337 151.028 74.8389C150.675 75.944 150.208 76.9124 149.627 77.7441C149.057 78.5645 148.362 79.2025 147.542 79.6582C146.722 80.1139 145.765 80.3418 144.671 80.3418C143.52 80.3418 142.495 80.1082 141.595 79.6411C140.706 79.174 139.954 78.5189 139.339 77.6758C138.735 76.8327 138.274 75.8415 137.955 74.7021C137.636 73.5628 137.476 72.321 137.476 70.9766ZM142.398 70.6177V70.9766C142.398 71.7399 142.455 72.452 142.569 73.1128C142.694 73.7736 142.894 74.3604 143.167 74.873C143.452 75.3743 143.816 75.7674 144.261 76.0522C144.716 76.3257 145.269 76.4624 145.918 76.4624C146.762 76.4624 147.457 76.2744 148.003 75.8984C148.55 75.5111 148.966 74.9813 149.251 74.3091C149.547 73.6369 149.718 72.8621 149.764 71.9849V69.7461C149.729 69.0283 149.627 68.3846 149.456 67.8149C149.297 67.2339 149.057 66.7383 148.738 66.3281C148.431 65.918 148.043 65.599 147.576 65.3711C147.12 65.1432 146.579 65.0293 145.953 65.0293C145.315 65.0293 144.768 65.1774 144.312 65.4736C143.856 65.7585 143.486 66.1515 143.201 66.6528C142.928 67.1541 142.723 67.7466 142.586 68.4302C142.461 69.1024 142.398 69.8315 142.398 70.6177ZM167.947 75.8301V67.5928C167.947 67.0003 167.85 66.4933 167.657 66.0718C167.463 65.6388 167.161 65.3027 166.751 65.0635C166.352 64.8242 165.834 64.7046 165.196 64.7046C164.649 64.7046 164.176 64.8014 163.777 64.9951C163.379 65.1774 163.071 65.4451 162.854 65.7983C162.638 66.1401 162.53 66.5446 162.53 67.0117H157.608C157.608 66.2256 157.79 65.4793 158.155 64.7729C158.519 64.0666 159.049 63.4456 159.744 62.9102C160.439 62.3633 161.265 61.936 162.222 61.6284C163.191 61.3208 164.273 61.167 165.469 61.167C166.905 61.167 168.181 61.4062 169.297 61.8848C170.414 62.3633 171.291 63.0811 171.929 64.0381C172.579 64.9951 172.903 66.1914 172.903 67.627V75.5396C172.903 76.5535 172.966 77.3853 173.091 78.0347C173.217 78.6727 173.399 79.231 173.638 79.7095V80H168.665C168.426 79.4987 168.243 78.8721 168.118 78.1201C168.004 77.3568 167.947 76.5934 167.947 75.8301ZM168.597 68.7378L168.631 71.5234H165.879C165.23 71.5234 164.666 71.5975 164.188 71.7456C163.709 71.8937 163.316 72.1045 163.008 72.3779C162.701 72.64 162.473 72.9476 162.325 73.3008C162.188 73.654 162.12 74.0413 162.12 74.4629C162.12 74.8844 162.216 75.2661 162.41 75.6079C162.604 75.9383 162.883 76.2004 163.248 76.394C163.612 76.5763 164.039 76.6675 164.529 76.6675C165.27 76.6675 165.914 76.5194 166.46 76.2231C167.007 75.9269 167.429 75.5623 167.725 75.1294C168.033 74.6965 168.192 74.2863 168.204 73.8989L169.502 75.9839C169.32 76.451 169.069 76.9352 168.75 77.4365C168.443 77.9378 168.05 78.4106 167.571 78.855C167.093 79.2879 166.517 79.6468 165.845 79.9316C165.173 80.2051 164.375 80.3418 163.453 80.3418C162.279 80.3418 161.214 80.1082 160.257 79.6411C159.311 79.1626 158.559 78.5075 158.001 77.6758C157.454 76.8327 157.181 75.8757 157.181 74.8047C157.181 73.8363 157.363 72.9761 157.728 72.2241C158.092 71.4722 158.628 70.8398 159.334 70.3271C160.052 69.8031 160.946 69.41 162.017 69.1479C163.088 68.8745 164.33 68.7378 165.743 68.7378H168.597ZM195.838 59.3726L189.07 80H183.619L192.864 55.1172H196.333L195.838 59.3726ZM201.46 80L194.676 59.3726L194.129 55.1172H197.632L206.929 80H201.46ZM201.153 70.7373V74.7534H188.011V70.7373H201.153ZM214.124 53.75V80H209.185V53.75H214.124ZM245.21 76.001V80H227.574V76.001H245.21ZM244.954 57.9712L229.847 80H226.241V77.0605L241.468 55.1172H244.954V57.9712ZM243.194 55.1172V59.1333H226.258V55.1172H243.194ZM258.147 75.8301V67.5928C258.147 67.0003 258.051 66.4933 257.857 66.0718C257.663 65.6388 257.361 65.3027 256.951 65.0635C256.552 64.8242 256.034 64.7046 255.396 64.7046C254.849 64.7046 254.376 64.8014 253.978 64.9951C253.579 65.1774 253.271 65.4451 253.055 65.7983C252.838 66.1401 252.73 66.5446 252.73 67.0117H247.808C247.808 66.2256 247.99 65.4793 248.355 64.7729C248.72 64.0666 249.249 63.4456 249.944 62.9102C250.639 62.3633 251.465 61.936 252.422 61.6284C253.391 61.3208 254.473 61.167 255.669 61.167C257.105 61.167 258.381 61.4062 259.498 61.8848C260.614 62.3633 261.491 63.0811 262.129 64.0381C262.779 64.9951 263.104 66.1914 263.104 67.627V75.5396C263.104 76.5535 263.166 77.3853 263.292 78.0347C263.417 78.6727 263.599 79.231 263.838 79.7095V80H258.865C258.626 79.4987 258.444 78.8721 258.318 78.1201C258.204 77.3568 258.147 76.5934 258.147 75.8301ZM258.797 68.7378L258.831 71.5234H256.08C255.43 71.5234 254.866 71.5975 254.388 71.7456C253.909 71.8937 253.516 72.1045 253.208 72.3779C252.901 72.64 252.673 72.9476 252.525 73.3008C252.388 73.654 252.32 74.0413 252.32 74.4629C252.32 74.8844 252.417 75.2661 252.61 75.6079C252.804 75.9383 253.083 76.2004 253.448 76.394C253.812 76.5763 254.24 76.6675 254.729 76.6675C255.47 76.6675 256.114 76.5194 256.661 76.2231C257.208 75.9269 257.629 75.5623 257.925 75.1294C258.233 74.6965 258.392 74.2863 258.404 73.8989L259.703 75.9839C259.52 76.451 259.27 76.9352 258.951 77.4365C258.643 77.9378 258.25 78.4106 257.771 78.855C257.293 79.2879 256.718 79.6468 256.045 79.9316C255.373 80.2051 254.576 80.3418 253.653 80.3418C252.479 80.3418 251.414 80.1082 250.457 79.6411C249.511 79.1626 248.759 78.5075 248.201 77.6758C247.654 76.8327 247.381 75.8757 247.381 74.8047C247.381 73.8363 247.563 72.9761 247.928 72.2241C248.292 71.4722 248.828 70.8398 249.534 70.3271C250.252 69.8031 251.146 69.41 252.217 69.1479C253.288 68.8745 254.53 68.7378 255.943 68.7378H258.797ZM271.7 53.75V80H266.778V53.75H271.7ZM270.999 70.105H269.649C269.66 68.8175 269.831 67.6326 270.162 66.5503C270.492 65.4565 270.965 64.5109 271.58 63.7134C272.195 62.9045 272.93 62.2778 273.785 61.8335C274.651 61.3892 275.608 61.167 276.656 61.167C277.567 61.167 278.393 61.298 279.134 61.5601C279.886 61.8107 280.529 62.2209 281.065 62.7905C281.612 63.3488 282.033 64.0837 282.33 64.9951C282.626 65.9066 282.774 67.0117 282.774 68.3105V80H277.818V68.2764C277.818 67.4561 277.698 66.8123 277.459 66.3452C277.231 65.8667 276.895 65.5306 276.451 65.3369C276.018 65.1318 275.482 65.0293 274.844 65.0293C274.138 65.0293 273.534 65.1603 273.033 65.4224C272.543 65.6844 272.15 66.049 271.854 66.5161C271.557 66.9718 271.341 67.5073 271.204 68.1226C271.067 68.7378 270.999 69.3986 270.999 70.105ZM296.497 75.8301V67.5928C296.497 67.0003 296.4 66.4933 296.207 66.0718C296.013 65.6388 295.711 65.3027 295.301 65.0635C294.902 64.8242 294.384 64.7046 293.746 64.7046C293.199 64.7046 292.726 64.8014 292.327 64.9951C291.928 65.1774 291.621 65.4451 291.404 65.7983C291.188 66.1401 291.08 66.5446 291.08 67.0117H286.158C286.158 66.2256 286.34 65.4793 286.705 64.7729C287.069 64.0666 287.599 63.4456 288.294 62.9102C288.989 62.3633 289.815 61.936 290.772 61.6284C291.74 61.3208 292.823 61.167 294.019 61.167C295.455 61.167 296.731 61.4062 297.847 61.8848C298.964 62.3633 299.841 63.0811 300.479 64.0381C301.128 64.9951 301.453 66.1914 301.453 67.627V75.5396C301.453 76.5535 301.516 77.3853 301.641 78.0347C301.766 78.6727 301.949 79.231 302.188 79.7095V80H297.215C296.976 79.4987 296.793 78.8721 296.668 78.1201C296.554 77.3568 296.497 76.5934 296.497 75.8301ZM297.146 68.7378L297.181 71.5234H294.429C293.78 71.5234 293.216 71.5975 292.737 71.7456C292.259 71.8937 291.866 72.1045 291.558 72.3779C291.25 72.64 291.023 72.9476 290.875 73.3008C290.738 73.654 290.669 74.0413 290.669 74.4629C290.669 74.8844 290.766 75.2661 290.96 75.6079C291.154 75.9383 291.433 76.2004 291.797 76.394C292.162 76.5763 292.589 76.6675 293.079 76.6675C293.82 76.6675 294.463 76.5194 295.01 76.2231C295.557 75.9269 295.979 75.5623 296.275 75.1294C296.583 74.6965 296.742 74.2863 296.753 73.8989L298.052 75.9839C297.87 76.451 297.619 76.9352 297.3 77.4365C296.993 77.9378 296.6 78.4106 296.121 78.855C295.643 79.2879 295.067 79.6468 294.395 79.9316C293.723 80.2051 292.925 80.3418 292.002 80.3418C290.829 80.3418 289.764 80.1082 288.807 79.6411C287.861 79.1626 287.109 78.5075 286.551 77.6758C286.004 76.8327 285.73 75.8757 285.73 74.8047C285.73 73.8363 285.913 72.9761 286.277 72.2241C286.642 71.4722 287.177 70.8398 287.884 70.3271C288.602 69.8031 289.496 69.41 290.567 69.1479C291.638 68.8745 292.88 68.7378 294.292 68.7378H297.146ZM305.247 53.75H310.169V75.7617L309.673 80H305.247V53.75ZM321.875 70.5664V70.9253C321.875 72.3039 321.727 73.5685 321.431 74.7192C321.146 75.87 320.702 76.8669 320.098 77.71C319.494 78.5417 318.742 79.1911 317.842 79.6582C316.954 80.1139 315.905 80.3418 314.698 80.3418C313.57 80.3418 312.59 80.1139 311.758 79.6582C310.938 79.2025 310.249 78.5588 309.69 77.7271C309.132 76.8953 308.682 75.9212 308.34 74.8047C307.999 73.6882 307.742 72.4691 307.571 71.1475V70.3613C307.742 69.0397 307.999 67.8206 308.34 66.7041C308.682 65.5876 309.132 64.6134 309.69 63.7817C310.249 62.95 310.938 62.3063 311.758 61.8506C312.579 61.3949 313.547 61.167 314.664 61.167C315.883 61.167 316.942 61.4006 317.842 61.8677C318.754 62.3234 319.506 62.9728 320.098 63.8159C320.702 64.6476 321.146 65.6388 321.431 66.7896C321.727 67.9289 321.875 69.1878 321.875 70.5664ZM316.954 70.9253V70.5664C316.954 69.8145 316.897 69.1081 316.783 68.4473C316.68 67.7751 316.498 67.1883 316.236 66.687C315.974 66.1743 315.615 65.7699 315.159 65.4736C314.715 65.1774 314.139 65.0293 313.433 65.0293C312.761 65.0293 312.191 65.1432 311.724 65.3711C311.257 65.599 310.87 65.918 310.562 66.3281C310.266 66.7383 310.044 67.2282 309.896 67.7979C309.747 68.3561 309.656 68.9714 309.622 69.6436V71.8823C309.656 72.7824 309.804 73.5799 310.066 74.2749C310.34 74.9585 310.75 75.4997 311.297 75.8984C311.855 76.2858 312.579 76.4795 313.467 76.4795C314.162 76.4795 314.738 76.3428 315.193 76.0693C315.649 75.7959 316.002 75.4085 316.253 74.9072C316.515 74.4059 316.697 73.8192 316.8 73.147C316.902 72.4634 316.954 71.7228 316.954 70.9253ZM330.13 61.5088V80H325.191V61.5088H330.13ZM324.883 56.6895C324.883 55.9717 325.134 55.3792 325.635 54.9121C326.137 54.445 326.809 54.2114 327.652 54.2114C328.484 54.2114 329.15 54.445 329.651 54.9121C330.164 55.3792 330.42 55.9717 330.42 56.6895C330.42 57.4072 330.164 57.9997 329.651 58.4668C329.15 58.9339 328.484 59.1675 327.652 59.1675C326.809 59.1675 326.137 58.9339 325.635 58.4668C325.134 57.9997 324.883 57.4072 324.883 56.6895Z" fill="#888888"/>
<rect x="92" y="181" width="1179" height="80" rx="13.3333" fill="#CCCCCC"/>
<rect x="107" y="196.333" width="208" height="49.3333" rx="4.66667" fill="#888888" stroke="#888888" stroke-width="4"/>
<path d="M187.573 213.167V228.333H183.917V213.167H187.573ZM196.625 213.167L190.75 220.854L187.312 224.615L186.646 221.26L188.844 217.927L192.115 213.167H196.625ZM192.302 228.333L188.385 221.5L191.229 219.406L196.625 228.333H192.302ZM196.667 222.812V222.594C196.667 221.767 196.785 221.007 197.021 220.312C197.257 219.611 197.604 219.003 198.062 218.49C198.521 217.976 199.087 217.576 199.76 217.292C200.434 217 201.212 216.854 202.094 216.854C202.983 216.854 203.764 217 204.437 217.292C205.118 217.576 205.687 217.976 206.146 218.49C206.604 219.003 206.951 219.611 207.187 220.312C207.424 221.007 207.542 221.767 207.542 222.594V222.812C207.542 223.632 207.424 224.392 207.187 225.094C206.951 225.788 206.604 226.396 206.146 226.917C205.687 227.431 205.122 227.83 204.448 228.115C203.774 228.399 202.997 228.542 202.115 228.542C201.233 228.542 200.451 228.399 199.771 228.115C199.09 227.83 198.521 227.431 198.062 226.917C197.604 226.396 197.257 225.788 197.021 225.094C196.785 224.392 196.667 223.632 196.667 222.812ZM200.177 222.594V222.812C200.177 223.236 200.208 223.632 200.271 224C200.333 224.368 200.437 224.691 200.583 224.969C200.729 225.24 200.927 225.451 201.177 225.604C201.427 225.757 201.74 225.833 202.115 225.833C202.483 225.833 202.788 225.757 203.031 225.604C203.281 225.451 203.479 225.24 203.625 224.969C203.771 224.691 203.875 224.368 203.937 224C204 223.632 204.031 223.236 204.031 222.812V222.594C204.031 222.184 204 221.799 203.937 221.437C203.875 221.069 203.771 220.747 203.625 220.469C203.479 220.184 203.281 219.962 203.031 219.802C202.781 219.642 202.469 219.562 202.094 219.562C201.726 219.562 201.417 219.642 201.167 219.802C200.924 219.962 200.729 220.184 200.583 220.469C200.437 220.747 200.333 221.069 200.271 221.437C200.208 221.799 200.177 222.184 200.177 222.594ZM215.042 217.062V219.5H208.25V217.062H215.042ZM209.677 214.26H213.187V224.656C213.187 224.955 213.222 225.187 213.292 225.354C213.361 225.514 213.479 225.628 213.646 225.698C213.819 225.76 214.049 225.792 214.333 225.792C214.535 225.792 214.701 225.788 214.833 225.781C214.965 225.767 215.09 225.75 215.208 225.729V228.24C214.91 228.337 214.597 228.41 214.271 228.458C213.944 228.514 213.597 228.542 213.229 228.542C212.479 228.542 211.837 228.424 211.302 228.187C210.774 227.951 210.372 227.58 210.094 227.073C209.816 226.566 209.677 225.906 209.677 225.094V214.26ZM220.146 212.333V228.333H216.625V212.333H220.146ZM226.021 217.062V228.333H222.5V217.062H226.021ZM222.292 214.156C222.292 213.656 222.472 213.247 222.833 212.927C223.194 212.608 223.663 212.448 224.24 212.448C224.816 212.448 225.285 212.608 225.646 212.927C226.007 213.247 226.187 213.656 226.187 214.156C226.187 214.656 226.007 215.066 225.646 215.385C225.285 215.705 224.816 215.865 224.24 215.865C223.663 215.865 223.194 215.705 222.833 215.385C222.472 215.066 222.292 214.656 222.292 214.156ZM231.635 219.469V228.333H228.125V217.062H231.417L231.635 219.469ZM231.219 222.312L230.396 222.333C230.396 221.472 230.5 220.705 230.708 220.031C230.917 219.351 231.212 218.774 231.594 218.302C231.976 217.83 232.431 217.472 232.958 217.229C233.493 216.979 234.087 216.854 234.74 216.854C235.26 216.854 235.736 216.931 236.167 217.083C236.604 217.236 236.979 217.483 237.292 217.823C237.611 218.163 237.854 218.615 238.021 219.177C238.194 219.733 238.281 220.42 238.281 221.24V228.333H234.75V221.229C234.75 220.778 234.687 220.434 234.562 220.198C234.437 219.955 234.257 219.788 234.021 219.698C233.785 219.608 233.497 219.562 233.156 219.562C232.795 219.562 232.49 219.632 232.24 219.771C231.99 219.91 231.788 220.104 231.635 220.354C231.49 220.597 231.382 220.885 231.312 221.219C231.25 221.552 231.219 221.917 231.219 222.312Z" fill="white"/>
<rect x="339" y="196.333" width="208" height="49.3333" rx="4.66667" fill="#888888" stroke="#888888" stroke-width="4"/>
<path d="M418.844 213.167V228.333H415.198L409.833 218.896V228.333H406.177V213.167H409.833L415.198 222.604V213.167H418.844ZM420.552 222.812V222.594C420.552 221.767 420.67 221.007 420.906 220.312C421.142 219.611 421.49 219.003 421.948 218.49C422.406 217.976 422.972 217.576 423.646 217.292C424.319 217 425.097 216.854 425.979 216.854C426.868 216.854 427.649 217 428.323 217.292C429.003 217.576 429.573 217.976 430.031 218.49C430.49 219.003 430.837 219.611 431.073 220.312C431.309 221.007 431.427 221.767 431.427 222.594V222.812C431.427 223.632 431.309 224.392 431.073 225.094C430.837 225.788 430.49 226.396 430.031 226.917C429.573 227.431 429.007 227.83 428.333 228.115C427.66 228.399 426.882 228.542 426 228.542C425.118 228.542 424.337 228.399 423.656 228.115C422.976 227.83 422.406 227.431 421.948 226.917C421.49 226.396 421.142 225.788 420.906 225.094C420.67 224.392 420.552 223.632 420.552 222.812ZM424.062 222.594V222.812C424.062 223.236 424.094 223.632 424.156 224C424.219 224.368 424.323 224.691 424.469 224.969C424.615 225.24 424.812 225.451 425.062 225.604C425.312 225.757 425.625 225.833 426 225.833C426.368 225.833 426.674 225.757 426.917 225.604C427.167 225.451 427.365 225.24 427.51 224.969C427.656 224.691 427.76 224.368 427.823 224C427.885 223.632 427.917 223.236 427.917 222.812V222.594C427.917 222.184 427.885 221.799 427.823 221.437C427.76 221.069 427.656 220.747 427.51 220.469C427.365 220.184 427.167 219.962 426.917 219.802C426.667 219.642 426.354 219.562 425.979 219.562C425.611 219.562 425.302 219.642 425.052 219.802C424.809 219.962 424.615 220.184 424.469 220.469C424.323 220.747 424.219 221.069 424.156 221.437C424.094 221.799 424.062 222.184 424.062 222.594ZM439.469 225.75V212.333H443V228.333H439.833L439.469 225.75ZM432.552 222.833V222.615C432.552 221.76 432.646 220.983 432.833 220.281C433.021 219.573 433.299 218.965 433.667 218.458C434.035 217.944 434.493 217.549 435.042 217.271C435.59 216.993 436.222 216.854 436.938 216.854C437.576 216.854 438.135 217.003 438.615 217.302C439.094 217.594 439.503 218.003 439.844 218.531C440.184 219.059 440.462 219.677 440.677 220.385C440.892 221.087 441.056 221.844 441.167 222.656V222.917C441.056 223.681 440.892 224.403 440.677 225.083C440.462 225.757 440.184 226.354 439.844 226.875C439.503 227.396 439.09 227.806 438.604 228.104C438.125 228.396 437.563 228.542 436.917 228.542C436.201 228.542 435.569 228.399 435.021 228.115C434.479 227.83 434.024 227.431 433.656 226.917C433.295 226.403 433.021 225.799 432.833 225.104C432.646 224.41 432.552 223.653 432.552 222.833ZM436.063 222.615V222.833C436.063 223.257 436.09 223.649 436.146 224.01C436.201 224.372 436.295 224.691 436.427 224.969C436.566 225.24 436.747 225.451 436.969 225.604C437.198 225.757 437.479 225.833 437.813 225.833C438.264 225.833 438.635 225.726 438.927 225.51C439.226 225.295 439.444 224.99 439.583 224.594C439.729 224.198 439.792 223.733 439.771 223.198V222.375C439.785 221.917 439.753 221.514 439.677 221.167C439.601 220.812 439.479 220.517 439.313 220.281C439.153 220.045 438.948 219.868 438.698 219.75C438.455 219.625 438.167 219.562 437.833 219.562C437.507 219.562 437.229 219.639 437 219.792C436.778 219.944 436.597 220.16 436.458 220.437C436.319 220.708 436.219 221.031 436.156 221.406C436.094 221.774 436.063 222.177 436.063 222.615ZM450.448 228.542C449.531 228.542 448.712 228.399 447.99 228.115C447.267 227.823 446.656 227.424 446.156 226.917C445.663 226.41 445.285 225.826 445.021 225.167C444.764 224.507 444.635 223.809 444.635 223.073V222.677C444.635 221.851 444.75 221.087 444.979 220.385C445.208 219.677 445.549 219.059 446 218.531C446.451 218.003 447.017 217.594 447.698 217.302C448.378 217.003 449.17 216.854 450.073 216.854C450.872 216.854 451.587 216.983 452.219 217.24C452.851 217.497 453.385 217.865 453.823 218.344C454.267 218.823 454.604 219.403 454.833 220.083C455.069 220.764 455.188 221.528 455.188 222.375V223.802H445.979V221.604H451.76V221.333C451.767 220.958 451.701 220.639 451.563 220.375C451.431 220.111 451.236 219.91 450.979 219.771C450.722 219.632 450.41 219.562 450.042 219.562C449.66 219.562 449.344 219.646 449.094 219.812C448.851 219.979 448.66 220.208 448.521 220.5C448.389 220.785 448.295 221.115 448.24 221.49C448.184 221.865 448.156 222.26 448.156 222.677V223.073C448.156 223.49 448.212 223.868 448.323 224.208C448.441 224.549 448.608 224.84 448.823 225.083C449.045 225.319 449.309 225.503 449.615 225.635C449.927 225.767 450.281 225.833 450.677 225.833C451.156 225.833 451.628 225.743 452.094 225.562C452.559 225.382 452.958 225.083 453.292 224.667L454.885 226.562C454.656 226.889 454.33 227.205 453.906 227.51C453.49 227.816 452.99 228.066 452.406 228.26C451.823 228.448 451.17 228.542 450.448 228.542ZM462.813 223.573V213.167H466.458V223.573C466.458 224.587 466.226 225.465 465.76 226.208C465.302 226.951 464.677 227.528 463.885 227.937C463.101 228.34 462.219 228.542 461.24 228.542C460.226 228.542 459.323 228.372 458.531 228.031C457.747 227.691 457.128 227.167 456.677 226.458C456.233 225.75 456.01 224.847 456.01 223.75H459.677C459.677 224.264 459.736 224.667 459.854 224.958C459.972 225.243 460.146 225.444 460.375 225.562C460.611 225.674 460.899 225.729 461.24 225.729C461.573 225.729 461.854 225.646 462.083 225.479C462.319 225.306 462.5 225.059 462.625 224.74C462.75 224.413 462.813 224.024 462.813 223.573ZM476.594 224.302C476.594 224.066 476.559 223.854 476.49 223.667C476.42 223.472 476.292 223.292 476.104 223.125C475.917 222.958 475.646 222.792 475.292 222.625C474.944 222.451 474.486 222.271 473.917 222.083C473.25 221.861 472.608 221.611 471.99 221.333C471.372 221.049 470.819 220.719 470.333 220.344C469.847 219.962 469.462 219.517 469.177 219.01C468.892 218.497 468.75 217.899 468.75 217.219C468.75 216.566 468.896 215.979 469.188 215.458C469.479 214.931 469.885 214.483 470.406 214.115C470.934 213.74 471.552 213.455 472.26 213.26C472.969 213.059 473.743 212.958 474.583 212.958C475.694 212.958 476.674 213.153 477.521 213.542C478.375 213.924 479.042 214.469 479.521 215.177C480.007 215.878 480.25 216.708 480.25 217.667H476.615C476.615 217.285 476.535 216.948 476.375 216.656C476.222 216.365 475.99 216.135 475.677 215.969C475.365 215.802 474.972 215.719 474.5 215.719C474.042 215.719 473.656 215.788 473.344 215.927C473.031 216.066 472.795 216.253 472.635 216.49C472.476 216.719 472.396 216.972 472.396 217.25C472.396 217.479 472.458 217.687 472.583 217.875C472.715 218.056 472.899 218.226 473.135 218.385C473.378 218.545 473.67 218.698 474.01 218.844C474.358 218.99 474.747 219.132 475.177 219.271C475.983 219.528 476.698 219.816 477.323 220.135C477.955 220.448 478.486 220.806 478.917 221.208C479.354 221.604 479.684 222.056 479.906 222.562C480.135 223.069 480.25 223.642 480.25 224.281C480.25 224.962 480.118 225.566 479.854 226.094C479.59 226.622 479.212 227.069 478.719 227.437C478.226 227.799 477.635 228.073 476.948 228.26C476.26 228.448 475.493 228.542 474.646 228.542C473.868 228.542 473.101 228.444 472.344 228.25C471.594 228.049 470.913 227.743 470.302 227.333C469.691 226.917 469.201 226.385 468.833 225.74C468.472 225.087 468.292 224.312 468.292 223.417H471.958C471.958 223.861 472.017 224.236 472.135 224.542C472.253 224.847 472.427 225.094 472.656 225.281C472.885 225.462 473.167 225.594 473.5 225.677C473.833 225.753 474.215 225.792 474.646 225.792C475.111 225.792 475.486 225.726 475.771 225.594C476.056 225.455 476.264 225.274 476.396 225.052C476.528 224.823 476.594 224.573 476.594 224.302Z" fill="white"/>
<rect x="571" y="196.333" width="208" height="49.3333" rx="4.66667" fill="#888888" stroke="#888888" stroke-width="4"/>
<path d="M630.656 213.167H633.635L637.021 223.719L640.406 213.167H643.385L638.229 228.333H635.813L630.656 213.167ZM628.844 213.167H631.927L632.5 224.792V228.333H628.844V213.167ZM642.115 213.167H645.208V228.333H641.542V224.792L642.115 213.167ZM646.948 222.812V222.594C646.948 221.767 647.066 221.007 647.302 220.312C647.538 219.611 647.885 219.003 648.344 218.49C648.802 217.976 649.368 217.576 650.042 217.292C650.715 217 651.493 216.854 652.375 216.854C653.264 216.854 654.045 217 654.719 217.292C655.399 217.576 655.969 217.976 656.427 218.49C656.885 219.003 657.233 219.611 657.469 220.312C657.705 221.007 657.823 221.767 657.823 222.594V222.812C657.823 223.632 657.705 224.392 657.469 225.094C657.233 225.788 656.885 226.396 656.427 226.917C655.969 227.431 655.403 227.83 654.729 228.115C654.056 228.399 653.278 228.542 652.396 228.542C651.514 228.542 650.733 228.399 650.052 228.115C649.372 227.83 648.802 227.431 648.344 226.917C647.885 226.396 647.538 225.788 647.302 225.094C647.066 224.392 646.948 223.632 646.948 222.812ZM650.458 222.594V222.812C650.458 223.236 650.49 223.632 650.552 224C650.615 224.368 650.719 224.691 650.865 224.969C651.01 225.24 651.208 225.451 651.458 225.604C651.708 225.757 652.021 225.833 652.396 225.833C652.764 225.833 653.069 225.757 653.313 225.604C653.563 225.451 653.76 225.24 653.906 224.969C654.052 224.691 654.156 224.368 654.219 224C654.281 223.632 654.313 223.236 654.313 222.812V222.594C654.313 222.184 654.281 221.799 654.219 221.437C654.156 221.069 654.052 220.747 653.906 220.469C653.76 220.184 653.563 219.962 653.313 219.802C653.063 219.642 652.75 219.562 652.375 219.562C652.007 219.562 651.698 219.642 651.448 219.802C651.205 219.962 651.01 220.184 650.865 220.469C650.719 220.747 650.615 221.069 650.552 221.437C650.49 221.799 650.458 222.184 650.458 222.594ZM662.833 219.469V228.333H659.323V217.062H662.615L662.833 219.469ZM662.417 222.312L661.594 222.333C661.594 221.472 661.698 220.705 661.906 220.031C662.115 219.351 662.41 218.774 662.792 218.302C663.174 217.83 663.628 217.472 664.156 217.229C664.691 216.979 665.285 216.854 665.938 216.854C666.458 216.854 666.934 216.931 667.365 217.083C667.802 217.236 668.177 217.483 668.49 217.823C668.809 218.163 669.052 218.615 669.219 219.177C669.392 219.733 669.479 220.42 669.479 221.24V228.333H665.948V221.229C665.948 220.778 665.885 220.434 665.76 220.198C665.635 219.955 665.455 219.788 665.219 219.698C664.983 219.608 664.694 219.562 664.354 219.562C663.993 219.562 663.688 219.632 663.438 219.771C663.188 219.91 662.986 220.104 662.833 220.354C662.688 220.597 662.58 220.885 662.51 221.219C662.448 221.552 662.417 221.917 662.417 222.312ZM678.51 217.062H681.698V227.896C681.698 228.937 681.458 229.819 680.979 230.542C680.5 231.271 679.83 231.823 678.969 232.198C678.115 232.58 677.115 232.771 675.969 232.771C675.462 232.771 674.944 232.705 674.417 232.573C673.889 232.448 673.396 232.26 672.938 232.01C672.479 231.76 672.094 231.451 671.781 231.083L673.25 229.021C673.535 229.34 673.892 229.611 674.323 229.833C674.753 230.062 675.26 230.177 675.844 230.177C676.351 230.177 676.774 230.087 677.115 229.906C677.462 229.726 677.726 229.462 677.906 229.115C678.087 228.774 678.177 228.361 678.177 227.875V219.729L678.51 217.062ZM671.021 222.833V222.615C671.021 221.76 671.125 220.983 671.333 220.281C671.549 219.573 671.854 218.965 672.25 218.458C672.653 217.944 673.139 217.549 673.708 217.271C674.278 216.993 674.92 216.854 675.635 216.854C676.406 216.854 677.038 217.003 677.531 217.302C678.031 217.594 678.431 218.003 678.729 218.531C679.035 219.059 679.271 219.677 679.438 220.385C679.611 221.087 679.757 221.844 679.875 222.656V222.917C679.757 223.681 679.594 224.403 679.385 225.083C679.184 225.757 678.92 226.354 678.594 226.875C678.267 227.396 677.858 227.806 677.365 228.104C676.878 228.396 676.295 228.542 675.615 228.542C674.906 228.542 674.267 228.399 673.698 228.115C673.135 227.83 672.653 227.431 672.25 226.917C671.854 226.403 671.549 225.799 671.333 225.104C671.125 224.41 671.021 223.653 671.021 222.833ZM674.531 222.615V222.833C674.531 223.257 674.569 223.649 674.646 224.01C674.729 224.372 674.854 224.691 675.021 224.969C675.188 225.24 675.392 225.451 675.635 225.604C675.885 225.757 676.177 225.833 676.51 225.833C677.017 225.833 677.427 225.726 677.74 225.51C678.052 225.295 678.278 224.99 678.417 224.594C678.556 224.198 678.615 223.733 678.594 223.198V222.375C678.608 221.917 678.576 221.514 678.5 221.167C678.424 220.812 678.302 220.517 678.135 220.281C677.976 220.045 677.76 219.868 677.49 219.75C677.226 219.625 676.906 219.562 676.531 219.562C676.205 219.562 675.917 219.639 675.667 219.792C675.417 219.944 675.208 220.16 675.042 220.437C674.875 220.708 674.747 221.031 674.656 221.406C674.573 221.774 674.531 222.177 674.531 222.615ZM683.281 222.812V222.594C683.281 221.767 683.399 221.007 683.635 220.312C683.872 219.611 684.219 219.003 684.677 218.49C685.135 217.976 685.701 217.576 686.375 217.292C687.049 217 687.826 216.854 688.708 216.854C689.597 216.854 690.378 217 691.052 217.292C691.733 217.576 692.302 217.976 692.76 218.49C693.219 219.003 693.566 219.611 693.802 220.312C694.038 221.007 694.156 221.767 694.156 222.594V222.812C694.156 223.632 694.038 224.392 693.802 225.094C693.566 225.788 693.219 226.396 692.76 226.917C692.302 227.431 691.736 227.83 691.063 228.115C690.389 228.399 689.611 228.542 688.729 228.542C687.847 228.542 687.066 228.399 686.385 228.115C685.705 227.83 685.135 227.431 684.677 226.917C684.219 226.396 683.872 225.788 683.635 225.094C683.399 224.392 683.281 223.632 683.281 222.812ZM686.792 222.594V222.812C686.792 223.236 686.823 223.632 686.885 224C686.948 224.368 687.052 224.691 687.198 224.969C687.344 225.24 687.542 225.451 687.792 225.604C688.042 225.757 688.354 225.833 688.729 225.833C689.097 225.833 689.403 225.757 689.646 225.604C689.896 225.451 690.094 225.24 690.24 224.969C690.385 224.691 690.49 224.368 690.552 224C690.615 223.632 690.646 223.236 690.646 222.812V222.594C690.646 222.184 690.615 221.799 690.552 221.437C690.49 221.069 690.385 220.747 690.24 220.469C690.094 220.184 689.896 219.962 689.646 219.802C689.396 219.642 689.083 219.562 688.708 219.562C688.34 219.562 688.031 219.642 687.781 219.802C687.538 219.962 687.344 220.184 687.198 220.469C687.052 220.747 686.948 221.069 686.885 221.437C686.823 221.799 686.792 222.184 686.792 222.594ZM700.813 228.333H697.448L697.469 225.521H700.813C701.507 225.521 702.094 225.354 702.573 225.021C703.059 224.687 703.427 224.191 703.677 223.531C703.934 222.865 704.063 222.045 704.063 221.073V220.417C704.063 219.687 703.99 219.049 703.844 218.5C703.705 217.944 703.497 217.483 703.219 217.115C702.941 216.74 702.594 216.458 702.177 216.271C701.767 216.083 701.295 215.99 700.76 215.99H697.385V213.167H700.76C701.788 213.167 702.729 213.344 703.583 213.698C704.444 214.045 705.188 214.545 705.813 215.198C706.444 215.844 706.931 216.611 707.271 217.5C707.618 218.382 707.792 219.361 707.792 220.437V221.073C707.792 222.142 707.618 223.122 707.271 224.01C706.931 224.899 706.448 225.667 705.823 226.312C705.198 226.958 704.458 227.458 703.604 227.812C702.757 228.16 701.826 228.333 700.813 228.333ZM699.542 213.167V228.333H695.885V213.167H699.542ZM715.885 221.885H711.979L711.958 219.49H715.125C715.694 219.49 716.149 219.427 716.49 219.302C716.83 219.17 717.076 218.979 717.229 218.729C717.389 218.479 717.469 218.167 717.469 217.792C717.469 217.361 717.389 217.014 717.229 216.75C717.069 216.486 716.816 216.295 716.469 216.177C716.128 216.052 715.688 215.99 715.146 215.99H713.354V228.333H709.698V213.167H715.146C716.083 213.167 716.92 213.253 717.656 213.427C718.392 213.594 719.017 213.851 719.531 214.198C720.052 214.545 720.448 214.983 720.719 215.51C720.99 216.031 721.125 216.646 721.125 217.354C721.125 217.972 720.993 218.552 720.729 219.094C720.465 219.635 720.024 220.076 719.406 220.417C718.795 220.75 717.958 220.924 716.896 220.937L715.885 221.885ZM715.74 228.333H711.094L712.344 225.521H715.74C716.24 225.521 716.639 225.444 716.938 225.292C717.243 225.132 717.462 224.924 717.594 224.667C717.733 224.403 717.802 224.111 717.802 223.792C717.802 223.403 717.736 223.066 717.604 222.781C717.479 222.497 717.278 222.278 717 222.125C716.722 221.965 716.351 221.885 715.885 221.885H712.813L712.833 219.49H716.51L717.365 220.448C718.378 220.406 719.181 220.549 719.771 220.875C720.368 221.201 720.795 221.632 721.052 222.167C721.309 222.701 721.438 223.26 721.438 223.844C721.438 224.837 721.222 225.667 720.792 226.333C720.368 227 719.733 227.5 718.885 227.833C718.038 228.167 716.99 228.333 715.74 228.333Z" fill="white"/>
<rect x="803" y="196.333" width="208" height="49.3333" rx="4.66667" fill="#888888" stroke="#888888" stroke-width="4"/>
<path d="M880.427 225.521V228.333H872.344V225.521H880.427ZM873.646 213.167V228.333H869.99V213.167H873.646ZM879.385 219.187V221.906H872.344V219.187H879.385ZM880.458 213.167V215.99H872.344V213.167H880.458ZM884.74 217.062L886.323 220.167L887.958 217.062H891.604L888.646 222.552L891.76 228.333H888.083L886.323 225L884.573 228.333H880.896L884.01 222.552L881.062 217.062H884.74ZM896.302 219.229V232.667H892.792V217.062H896.062L896.302 219.229ZM903.219 222.562V222.781C903.219 223.601 903.125 224.361 902.937 225.062C902.75 225.764 902.472 226.375 902.104 226.896C901.736 227.417 901.278 227.823 900.729 228.115C900.187 228.399 899.559 228.542 898.844 228.542C898.17 228.542 897.59 228.392 897.104 228.094C896.618 227.795 896.212 227.382 895.885 226.854C895.559 226.326 895.295 225.722 895.094 225.042C894.892 224.361 894.733 223.642 894.615 222.885V222.604C894.733 221.792 894.892 221.038 895.094 220.344C895.295 219.642 895.559 219.031 895.885 218.51C896.212 217.99 896.615 217.583 897.094 217.292C897.58 217 898.16 216.854 898.833 216.854C899.549 216.854 900.177 216.99 900.719 217.26C901.267 217.531 901.726 217.92 902.094 218.427C902.469 218.927 902.75 219.528 902.937 220.229C903.125 220.931 903.219 221.708 903.219 222.562ZM899.708 222.781V222.562C899.708 222.125 899.677 221.726 899.615 221.365C899.552 220.997 899.451 220.677 899.312 220.406C899.181 220.135 899.003 219.927 898.781 219.781C898.559 219.635 898.285 219.562 897.958 219.562C897.583 219.562 897.267 219.622 897.01 219.74C896.76 219.851 896.559 220.024 896.406 220.26C896.26 220.49 896.156 220.778 896.094 221.125C896.038 221.465 896.014 221.865 896.021 222.323V223.177C896.007 223.705 896.059 224.17 896.177 224.573C896.295 224.969 896.5 225.278 896.792 225.5C897.083 225.722 897.479 225.833 897.979 225.833C898.312 225.833 898.59 225.757 898.812 225.604C899.035 225.444 899.212 225.226 899.344 224.948C899.476 224.663 899.569 224.337 899.625 223.969C899.681 223.601 899.708 223.205 899.708 222.781ZM908.323 219.854V228.333H904.812V217.062H908.094L908.323 219.854ZM911.656 216.979L911.594 220.24C911.455 220.226 911.267 220.208 911.031 220.187C910.795 220.167 910.597 220.156 910.437 220.156C910.028 220.156 909.674 220.205 909.375 220.302C909.083 220.392 908.84 220.531 908.646 220.719C908.458 220.899 908.319 221.128 908.229 221.406C908.146 221.684 908.108 222.007 908.115 222.375L907.479 221.958C907.479 221.201 907.552 220.514 907.698 219.896C907.851 219.271 908.066 218.733 908.344 218.281C908.622 217.823 908.958 217.472 909.354 217.229C909.75 216.979 910.194 216.854 910.687 216.854C910.861 216.854 911.031 216.865 911.198 216.885C911.372 216.906 911.524 216.937 911.656 216.979ZM918.115 228.542C917.198 228.542 916.378 228.399 915.656 228.115C914.934 227.823 914.323 227.424 913.823 226.917C913.33 226.41 912.951 225.826 912.687 225.167C912.431 224.507 912.302 223.809 912.302 223.073V222.677C912.302 221.851 912.417 221.087 912.646 220.385C912.875 219.677 913.215 219.059 913.667 218.531C914.118 218.003 914.684 217.594 915.365 217.302C916.045 217.003 916.837 216.854 917.74 216.854C918.538 216.854 919.253 216.983 919.885 217.24C920.517 217.497 921.052 217.865 921.49 218.344C921.934 218.823 922.271 219.403 922.5 220.083C922.736 220.764 922.854 221.528 922.854 222.375V223.802H913.646V221.604H919.427V221.333C919.434 220.958 919.368 220.639 919.229 220.375C919.097 220.111 918.903 219.91 918.646 219.771C918.389 219.632 918.076 219.562 917.708 219.562C917.326 219.562 917.01 219.646 916.76 219.812C916.517 219.979 916.326 220.208 916.187 220.5C916.056 220.785 915.962 221.115 915.906 221.49C915.851 221.865 915.823 222.26 915.823 222.677V223.073C915.823 223.49 915.878 223.868 915.99 224.208C916.108 224.549 916.274 224.84 916.49 225.083C916.712 225.319 916.976 225.503 917.281 225.635C917.594 225.767 917.948 225.833 918.344 225.833C918.823 225.833 919.295 225.743 919.76 225.562C920.226 225.382 920.625 225.083 920.958 224.667L922.552 226.562C922.323 226.889 921.997 227.205 921.573 227.51C921.156 227.816 920.656 228.066 920.073 228.26C919.49 228.448 918.837 228.542 918.115 228.542ZM930.187 225.167C930.187 224.972 930.122 224.806 929.99 224.667C929.865 224.521 929.642 224.389 929.323 224.271C929.003 224.146 928.556 224.021 927.979 223.896C927.431 223.778 926.913 223.622 926.427 223.427C925.948 223.233 925.528 222.997 925.167 222.719C924.806 222.441 924.521 222.111 924.312 221.729C924.111 221.347 924.01 220.91 924.01 220.417C924.01 219.937 924.111 219.486 924.312 219.062C924.521 218.632 924.823 218.253 925.219 217.927C925.622 217.594 926.111 217.333 926.687 217.146C927.264 216.951 927.92 216.854 928.656 216.854C929.67 216.854 930.545 217.01 931.281 217.323C932.017 217.628 932.583 218.059 932.979 218.615C933.382 219.163 933.583 219.799 933.583 220.521H930.073C930.073 220.236 930.024 219.993 929.927 219.792C929.837 219.59 929.687 219.437 929.479 219.333C929.271 219.222 928.993 219.167 928.646 219.167C928.403 219.167 928.181 219.212 927.979 219.302C927.785 219.392 927.628 219.517 927.51 219.677C927.392 219.837 927.333 220.024 927.333 220.24C927.333 220.392 927.368 220.531 927.437 220.656C927.514 220.774 927.628 220.885 927.781 220.99C927.934 221.087 928.128 221.177 928.365 221.26C928.601 221.337 928.885 221.406 929.219 221.469C929.976 221.608 930.684 221.806 931.344 222.062C932.003 222.319 932.538 222.684 932.948 223.156C933.365 223.628 933.573 224.264 933.573 225.062C933.573 225.562 933.458 226.024 933.229 226.448C933 226.865 932.67 227.233 932.24 227.552C931.809 227.865 931.292 228.108 930.687 228.281C930.083 228.455 929.403 228.542 928.646 228.542C927.569 228.542 926.66 228.351 925.917 227.969C925.174 227.58 924.611 227.094 924.229 226.51C923.854 225.92 923.667 225.323 923.667 224.719H926.937C926.951 225.066 927.035 225.351 927.187 225.573C927.347 225.795 927.559 225.958 927.823 226.062C928.087 226.167 928.392 226.219 928.74 226.219C929.059 226.219 929.323 226.174 929.531 226.083C929.747 225.993 929.91 225.872 930.021 225.719C930.132 225.559 930.187 225.375 930.187 225.167ZM941.125 225.167C941.125 224.972 941.059 224.806 940.927 224.667C940.802 224.521 940.58 224.389 940.26 224.271C939.941 224.146 939.493 224.021 938.917 223.896C938.368 223.778 937.851 223.622 937.365 223.427C936.885 223.233 936.465 222.997 936.104 222.719C935.743 222.441 935.458 222.111 935.25 221.729C935.049 221.347 934.948 220.91 934.948 220.417C934.948 219.937 935.049 219.486 935.25 219.062C935.458 218.632 935.76 218.253 936.156 217.927C936.559 217.594 937.049 217.333 937.625 217.146C938.201 216.951 938.858 216.854 939.594 216.854C940.608 216.854 941.483 217.01 942.219 217.323C942.955 217.628 943.521 218.059 943.917 218.615C944.319 219.163 944.521 219.799 944.521 220.521H941.01C941.01 220.236 940.962 219.993 940.865 219.792C940.774 219.59 940.625 219.437 940.417 219.333C940.208 219.222 939.931 219.167 939.583 219.167C939.34 219.167 939.118 219.212 938.917 219.302C938.722 219.392 938.566 219.517 938.448 219.677C938.33 219.837 938.271 220.024 938.271 220.24C938.271 220.392 938.306 220.531 938.375 220.656C938.451 220.774 938.566 220.885 938.719 220.99C938.872 221.087 939.066 221.177 939.302 221.26C939.538 221.337 939.823 221.406 940.156 221.469C940.913 221.608 941.622 221.806 942.281 222.062C942.941 222.319 943.476 222.684 943.885 223.156C944.302 223.628 944.51 224.264 944.51 225.062C944.51 225.562 944.396 226.024 944.167 226.448C943.937 226.865 943.608 227.233 943.177 227.552C942.747 227.865 942.229 228.108 941.625 228.281C941.021 228.455 940.34 228.542 939.583 228.542C938.507 228.542 937.597 228.351 936.854 227.969C936.111 227.58 935.549 227.094 935.167 226.51C934.792 225.92 934.604 225.323 934.604 224.719H937.875C937.889 225.066 937.972 225.351 938.125 225.573C938.285 225.795 938.497 225.958 938.76 226.062C939.024 226.167 939.33 226.219 939.677 226.219C939.997 226.219 940.26 226.174 940.469 226.083C940.684 225.993 940.847 225.872 940.958 225.719C941.069 225.559 941.125 225.375 941.125 225.167Z" fill="white"/>
<rect x="1035" y="196.333" width="208" height="49.3333" rx="4.66667" fill="#888888" stroke="#888888" stroke-width="4"/>
<path d="M1112.5 213.167H1118.47C1119.64 213.167 1120.65 213.34 1121.51 213.687C1122.37 214.035 1123.03 214.549 1123.5 215.229C1123.97 215.91 1124.21 216.75 1124.21 217.75C1124.21 218.618 1124.07 219.344 1123.8 219.927C1123.53 220.51 1123.15 220.993 1122.67 221.375C1122.19 221.75 1121.63 222.059 1120.99 222.302L1119.79 222.979H1114.78L1114.76 220.156H1118.47C1118.93 220.156 1119.32 220.073 1119.63 219.906C1119.93 219.74 1120.16 219.503 1120.31 219.198C1120.47 218.885 1120.55 218.514 1120.55 218.083C1120.55 217.646 1120.47 217.271 1120.31 216.958C1120.15 216.646 1119.92 216.406 1119.6 216.24C1119.3 216.073 1118.92 215.99 1118.47 215.99H1116.16V228.333H1112.5V213.167ZM1120.8 228.333L1117.45 221.625L1121.32 221.604L1124.72 228.177V228.333H1120.8ZM1131.71 228.542C1130.79 228.542 1129.97 228.399 1129.25 228.115C1128.53 227.823 1127.92 227.424 1127.42 226.917C1126.92 226.41 1126.55 225.826 1126.28 225.167C1126.02 224.507 1125.9 223.809 1125.9 223.073V222.677C1125.9 221.851 1126.01 221.087 1126.24 220.385C1126.47 219.677 1126.81 219.059 1127.26 218.531C1127.71 218.003 1128.28 217.594 1128.96 217.302C1129.64 217.003 1130.43 216.854 1131.33 216.854C1132.13 216.854 1132.85 216.983 1133.48 217.24C1134.11 217.497 1134.65 217.865 1135.08 218.344C1135.53 218.823 1135.86 219.403 1136.09 220.083C1136.33 220.764 1136.45 221.528 1136.45 222.375V223.802H1127.24V221.604H1133.02V221.333C1133.03 220.958 1132.96 220.639 1132.82 220.375C1132.69 220.111 1132.5 219.91 1132.24 219.771C1131.98 219.632 1131.67 219.562 1131.3 219.562C1130.92 219.562 1130.6 219.646 1130.35 219.812C1130.11 219.979 1129.92 220.208 1129.78 220.5C1129.65 220.785 1129.56 221.115 1129.5 221.49C1129.44 221.865 1129.42 222.26 1129.42 222.677V223.073C1129.42 223.49 1129.47 223.868 1129.58 224.208C1129.7 224.549 1129.87 224.84 1130.08 225.083C1130.31 225.319 1130.57 225.503 1130.87 225.635C1131.19 225.767 1131.54 225.833 1131.94 225.833C1132.42 225.833 1132.89 225.743 1133.35 225.562C1133.82 225.382 1134.22 225.083 1134.55 224.667L1136.15 226.562C1135.92 226.889 1135.59 227.205 1135.17 227.51C1134.75 227.816 1134.25 228.066 1133.67 228.26C1133.08 228.448 1132.43 228.542 1131.71 228.542ZM1143.73 225.5V220.854C1143.73 220.535 1143.68 220.26 1143.59 220.031C1143.5 219.802 1143.36 219.625 1143.17 219.5C1142.97 219.368 1142.71 219.302 1142.39 219.302C1142.12 219.302 1141.9 219.347 1141.71 219.437C1141.52 219.528 1141.38 219.663 1141.28 219.844C1141.18 220.024 1141.14 220.253 1141.14 220.531H1137.63C1137.63 220.01 1137.74 219.528 1137.97 219.083C1138.2 218.632 1138.54 218.24 1138.97 217.906C1139.41 217.573 1139.93 217.316 1140.53 217.135C1141.14 216.948 1141.82 216.854 1142.57 216.854C1143.47 216.854 1144.27 217.003 1144.97 217.302C1145.68 217.601 1146.24 218.049 1146.65 218.646C1147.06 219.236 1147.26 219.979 1147.26 220.875V225.49C1147.26 226.226 1147.3 226.785 1147.39 227.167C1147.47 227.542 1147.59 227.872 1147.74 228.156V228.333H1144.22C1144.05 227.986 1143.93 227.562 1143.84 227.062C1143.77 226.556 1143.73 226.035 1143.73 225.5ZM1144.16 221.448L1144.18 223.323H1142.63C1142.3 223.323 1142.02 223.368 1141.79 223.458C1141.57 223.549 1141.39 223.674 1141.25 223.833C1141.12 223.986 1141.02 224.16 1140.96 224.354C1140.9 224.549 1140.88 224.753 1140.88 224.969C1140.88 225.177 1140.92 225.365 1141.02 225.531C1141.13 225.691 1141.26 225.816 1141.44 225.906C1141.61 225.997 1141.81 226.042 1142.02 226.042C1142.41 226.042 1142.74 225.969 1143.01 225.823C1143.29 225.67 1143.5 225.486 1143.65 225.271C1143.79 225.056 1143.86 224.854 1143.86 224.667L1144.64 226.104C1144.5 226.382 1144.34 226.663 1144.16 226.948C1143.98 227.233 1143.76 227.497 1143.5 227.74C1143.24 227.976 1142.93 228.17 1142.55 228.323C1142.18 228.469 1141.72 228.542 1141.19 228.542C1140.49 228.542 1139.85 228.399 1139.27 228.115C1138.69 227.83 1138.23 227.434 1137.89 226.927C1137.54 226.413 1137.36 225.823 1137.36 225.156C1137.36 224.573 1137.47 224.052 1137.68 223.594C1137.89 223.135 1138.22 222.747 1138.65 222.427C1139.08 222.108 1139.63 221.865 1140.29 221.698C1140.96 221.531 1141.74 221.448 1142.65 221.448H1144.16ZM1153.97 225.833C1154.3 225.833 1154.57 225.774 1154.8 225.656C1155.04 225.531 1155.22 225.358 1155.33 225.135C1155.46 224.906 1155.52 224.632 1155.51 224.312H1158.81C1158.82 225.16 1158.61 225.903 1158.19 226.542C1157.77 227.174 1157.2 227.667 1156.48 228.021C1155.76 228.368 1154.95 228.542 1154.05 228.542C1153.17 228.542 1152.4 228.399 1151.74 228.115C1151.08 227.823 1150.53 227.42 1150.08 226.906C1149.65 226.385 1149.32 225.778 1149.09 225.083C1148.88 224.389 1148.77 223.635 1148.77 222.823V222.583C1148.77 221.771 1148.88 221.017 1149.09 220.323C1149.32 219.622 1149.65 219.014 1150.08 218.5C1150.53 217.979 1151.08 217.576 1151.73 217.292C1152.39 217 1153.16 216.854 1154.03 216.854C1154.97 216.854 1155.8 217.031 1156.51 217.385C1157.23 217.74 1157.8 218.253 1158.21 218.927C1158.62 219.601 1158.82 220.417 1158.81 221.375H1155.51C1155.52 221.035 1155.47 220.729 1155.35 220.458C1155.24 220.187 1155.07 219.972 1154.83 219.812C1154.6 219.646 1154.31 219.562 1153.95 219.562C1153.59 219.562 1153.3 219.642 1153.07 219.802C1152.85 219.962 1152.68 220.184 1152.56 220.469C1152.45 220.747 1152.38 221.066 1152.33 221.427C1152.3 221.788 1152.28 222.174 1152.28 222.583V222.823C1152.28 223.24 1152.3 223.632 1152.33 224C1152.38 224.361 1152.45 224.681 1152.57 224.958C1152.69 225.229 1152.86 225.444 1153.08 225.604C1153.31 225.757 1153.6 225.833 1153.97 225.833ZM1166.25 217.062V219.5H1159.46V217.062H1166.25ZM1160.89 214.26H1164.4V224.656C1164.4 224.955 1164.43 225.187 1164.5 225.354C1164.57 225.514 1164.69 225.628 1164.85 225.698C1165.03 225.76 1165.26 225.792 1165.54 225.792C1165.74 225.792 1165.91 225.788 1166.04 225.781C1166.17 225.767 1166.3 225.75 1166.42 225.729V228.24C1166.12 228.337 1165.81 228.41 1165.48 228.458C1165.15 228.514 1164.81 228.542 1164.44 228.542C1163.69 228.542 1163.05 228.424 1162.51 228.187C1161.98 227.951 1161.58 227.58 1161.3 227.073C1161.02 226.566 1160.89 225.906 1160.89 225.094V214.26Z" fill="white"/>
</svg>
