<svg width="1363" height="301" viewBox="0 0 1363 301" fill="none" xmlns="http://www.w3.org/2000/svg">
<rect width="1363" height="301" rx="15" fill="#F0F0F0"/>
<path d="M0 15C0 6.71573 6.71573 0 15 0H37V301H15C6.71573 301 0 294.284 0 286V15Z" fill="#0BA3D3" fill-opacity="0.65"/>
<path d="M115.123 133.607C115.123 132.998 115.033 132.452 114.854 131.969C114.675 131.467 114.344 131.002 113.86 130.572C113.377 130.143 112.679 129.713 111.766 129.283C110.87 128.836 109.689 128.37 108.221 127.887C106.502 127.314 104.846 126.669 103.252 125.953C101.659 125.219 100.236 124.369 98.9824 123.402C97.7292 122.417 96.7355 121.271 96.0015 119.964C95.2674 118.639 94.9004 117.1 94.9004 115.345C94.9004 113.662 95.2764 112.149 96.0283 110.807C96.7803 109.446 97.8276 108.291 99.1704 107.342C100.531 106.375 102.125 105.641 103.951 105.14C105.777 104.621 107.773 104.361 109.939 104.361C112.804 104.361 115.328 104.863 117.513 105.865C119.715 106.85 121.434 108.255 122.669 110.082C123.922 111.89 124.549 114.029 124.549 116.5H115.176C115.176 115.515 114.97 114.647 114.559 113.895C114.165 113.143 113.565 112.552 112.759 112.123C111.954 111.693 110.942 111.478 109.725 111.478C108.543 111.478 107.549 111.657 106.744 112.015C105.938 112.373 105.329 112.857 104.917 113.465C104.506 114.056 104.3 114.71 104.3 115.426C104.3 116.017 104.461 116.554 104.783 117.037C105.123 117.503 105.598 117.941 106.207 118.353C106.833 118.765 107.585 119.159 108.462 119.535C109.358 119.911 110.36 120.278 111.47 120.636C113.547 121.298 115.391 122.041 117.002 122.865C118.632 123.67 120.001 124.592 121.111 125.631C122.239 126.651 123.09 127.815 123.663 129.122C124.253 130.429 124.549 131.906 124.549 133.553C124.549 135.308 124.209 136.865 123.528 138.226C122.848 139.587 121.872 140.742 120.601 141.69C119.33 142.621 117.808 143.329 116.036 143.812C114.263 144.295 112.285 144.537 110.101 144.537C108.095 144.537 106.117 144.286 104.166 143.785C102.232 143.266 100.477 142.478 98.9019 141.422C97.3263 140.348 96.0641 138.978 95.1152 137.313C94.1842 135.63 93.7188 133.634 93.7188 131.324H103.172C103.172 132.47 103.324 133.437 103.628 134.225C103.933 135.012 104.38 135.648 104.971 136.131C105.562 136.597 106.287 136.937 107.146 137.152C108.006 137.349 108.991 137.447 110.101 137.447C111.3 137.447 112.267 137.277 113.001 136.937C113.735 136.579 114.272 136.113 114.612 135.541C114.952 134.95 115.123 134.305 115.123 133.607ZM144.073 136.695V124.718C144.073 123.894 143.956 123.187 143.724 122.596C143.491 122.005 143.124 121.549 142.623 121.227C142.121 120.886 141.45 120.716 140.608 120.716C139.928 120.716 139.346 120.833 138.863 121.065C138.379 121.298 138.012 121.647 137.762 122.113C137.511 122.578 137.386 123.169 137.386 123.885H128.335C128.335 122.542 128.631 121.298 129.222 120.152C129.83 118.989 130.69 117.977 131.8 117.118C132.928 116.258 134.271 115.596 135.828 115.13C137.404 114.647 139.158 114.405 141.092 114.405C143.401 114.405 145.46 114.79 147.269 115.56C149.095 116.33 150.536 117.485 151.592 119.024C152.649 120.546 153.177 122.462 153.177 124.771V136.668C153.177 138.566 153.284 140.007 153.499 140.992C153.714 141.959 154.018 142.809 154.412 143.543V144H145.335C144.905 143.105 144.583 142.013 144.368 140.724C144.171 139.417 144.073 138.074 144.073 136.695ZM145.174 126.249L145.228 131.083H141.226C140.385 131.083 139.668 131.199 139.078 131.432C138.505 131.664 138.039 131.987 137.681 132.398C137.341 132.792 137.09 133.24 136.929 133.741C136.786 134.243 136.714 134.771 136.714 135.326C136.714 135.863 136.84 136.346 137.09 136.776C137.359 137.188 137.717 137.51 138.165 137.743C138.612 137.975 139.113 138.092 139.668 138.092C140.671 138.092 141.521 137.904 142.22 137.528C142.936 137.134 143.482 136.66 143.858 136.104C144.234 135.549 144.422 135.03 144.422 134.547L146.409 138.253C146.051 138.969 145.639 139.694 145.174 140.428C144.726 141.162 144.162 141.843 143.482 142.469C142.819 143.078 142.005 143.579 141.038 143.973C140.071 144.349 138.899 144.537 137.52 144.537C135.73 144.537 134.083 144.17 132.579 143.436C131.093 142.702 129.902 141.681 129.007 140.375C128.112 139.05 127.664 137.528 127.664 135.809C127.664 134.305 127.933 132.962 128.47 131.781C129.025 130.599 129.857 129.597 130.967 128.773C132.077 127.949 133.492 127.323 135.21 126.893C136.929 126.463 138.952 126.249 141.28 126.249H145.174ZM169.29 144H160.186V112.579C160.186 110.323 160.643 108.425 161.556 106.886C162.469 105.346 163.758 104.182 165.423 103.395C167.088 102.589 169.057 102.186 171.331 102.186C172.119 102.186 172.862 102.24 173.56 102.347C174.258 102.455 174.939 102.589 175.601 102.75L175.628 109.41C175.306 109.321 174.974 109.258 174.634 109.222C174.294 109.186 173.873 109.168 173.372 109.168C172.495 109.168 171.752 109.303 171.143 109.571C170.534 109.822 170.069 110.207 169.747 110.726C169.442 111.227 169.29 111.845 169.29 112.579V144ZM174.93 114.942V121.227H155.997V114.942H174.93ZM191.607 144.537C189.244 144.537 187.131 144.17 185.269 143.436C183.407 142.684 181.832 141.655 180.542 140.348C179.271 139.041 178.296 137.537 177.615 135.836C176.953 134.135 176.622 132.336 176.622 130.438V129.417C176.622 127.287 176.917 125.318 177.508 123.509C178.099 121.683 178.976 120.09 180.14 118.729C181.303 117.368 182.763 116.312 184.517 115.56C186.272 114.79 188.313 114.405 190.64 114.405C192.699 114.405 194.543 114.736 196.172 115.399C197.802 116.061 199.18 117.01 200.308 118.246C201.454 119.481 202.322 120.976 202.913 122.73C203.522 124.485 203.826 126.454 203.826 128.639V132.318H180.086V126.651H194.991V125.953C195.009 124.986 194.839 124.163 194.48 123.482C194.14 122.802 193.639 122.283 192.977 121.925C192.314 121.567 191.508 121.388 190.56 121.388C189.575 121.388 188.76 121.603 188.116 122.032C187.489 122.462 186.997 123.053 186.639 123.805C186.299 124.539 186.057 125.389 185.914 126.356C185.77 127.323 185.699 128.343 185.699 129.417V130.438C185.699 131.512 185.842 132.488 186.128 133.365C186.433 134.243 186.862 134.994 187.417 135.621C187.99 136.23 188.671 136.704 189.458 137.044C190.264 137.385 191.177 137.555 192.198 137.555C193.433 137.555 194.651 137.322 195.85 136.856C197.05 136.391 198.079 135.621 198.938 134.547L203.047 139.435C202.457 140.276 201.615 141.091 200.523 141.878C199.449 142.666 198.16 143.311 196.656 143.812C195.152 144.295 193.469 144.537 191.607 144.537ZM217.066 102.75V144H207.989V102.75H217.066ZM231.568 140.589L239.087 114.942H248.809L237.127 148.324C236.876 149.058 236.545 149.846 236.133 150.687C235.722 151.546 235.158 152.361 234.441 153.131C233.725 153.901 232.803 154.527 231.675 155.011C230.565 155.494 229.187 155.736 227.54 155.736C226.662 155.736 226.018 155.691 225.606 155.602C225.212 155.53 224.603 155.396 223.78 155.199V148.727C224.013 148.727 224.209 148.727 224.371 148.727C224.55 148.727 224.747 148.727 224.961 148.727C225.928 148.727 226.698 148.628 227.271 148.431C227.862 148.234 228.309 147.948 228.614 147.572C228.936 147.196 229.187 146.739 229.366 146.202L231.568 140.589ZM229.661 114.942L235.381 135.272L236.375 144.859H230.306L219.966 114.942H229.661Z" fill="black"/>
<path d="M110.816 65.2515V69.2505H97.8276V65.2515H110.816ZM99.3486 55.1172V80H94.2217V55.1172H99.3486ZM114.473 55.1172V80H109.363V55.1172H114.473ZM129.563 75.5737V61.5088H134.485V80H129.854L129.563 75.5737ZM130.11 71.7798L131.563 71.7456C131.563 72.9761 131.421 74.1211 131.136 75.1807C130.851 76.2288 130.424 77.1403 129.854 77.915C129.284 78.6784 128.567 79.2765 127.701 79.7095C126.835 80.131 125.815 80.3418 124.642 80.3418C123.742 80.3418 122.91 80.2165 122.146 79.9658C121.395 79.7038 120.745 79.2993 120.198 78.7524C119.663 78.1942 119.241 77.4821 118.934 76.6162C118.637 75.7389 118.489 74.6851 118.489 73.4546V61.5088H123.411V73.4888C123.411 74.0356 123.474 74.4971 123.599 74.873C123.736 75.249 123.924 75.5566 124.163 75.7959C124.402 76.0352 124.681 76.2061 125 76.3086C125.331 76.4111 125.695 76.4624 126.094 76.4624C127.108 76.4624 127.906 76.2573 128.487 75.8472C129.079 75.437 129.495 74.8787 129.734 74.1724C129.985 73.4546 130.11 72.6571 130.11 71.7798ZM149.166 75.9668V53.75H154.122V80H149.661L149.166 75.9668ZM137.476 70.9766V70.6177C137.476 69.2049 137.636 67.9232 137.955 66.7725C138.274 65.6104 138.741 64.6134 139.356 63.7817C139.971 62.95 140.729 62.3063 141.629 61.8506C142.529 61.3949 143.554 61.167 144.705 61.167C145.787 61.167 146.733 61.3949 147.542 61.8506C148.362 62.3063 149.057 62.9557 149.627 63.7988C150.208 64.6305 150.675 65.616 151.028 66.7554C151.382 67.8833 151.638 69.1195 151.797 70.4639V71.25C151.638 72.5374 151.382 73.7337 151.028 74.8389C150.675 75.944 150.208 76.9124 149.627 77.7441C149.057 78.5645 148.362 79.2025 147.542 79.6582C146.722 80.1139 145.765 80.3418 144.671 80.3418C143.52 80.3418 142.495 80.1082 141.595 79.6411C140.706 79.174 139.954 78.5189 139.339 77.6758C138.735 76.8327 138.274 75.8415 137.955 74.7021C137.636 73.5628 137.476 72.321 137.476 70.9766ZM142.398 70.6177V70.9766C142.398 71.7399 142.455 72.452 142.569 73.1128C142.694 73.7736 142.894 74.3604 143.167 74.873C143.452 75.3743 143.816 75.7674 144.261 76.0522C144.716 76.3257 145.269 76.4624 145.918 76.4624C146.762 76.4624 147.457 76.2744 148.003 75.8984C148.55 75.5111 148.966 74.9813 149.251 74.3091C149.547 73.6369 149.718 72.8621 149.764 71.9849V69.7461C149.729 69.0283 149.627 68.3846 149.456 67.8149C149.297 67.2339 149.057 66.7383 148.738 66.3281C148.431 65.918 148.043 65.599 147.576 65.3711C147.12 65.1432 146.579 65.0293 145.953 65.0293C145.315 65.0293 144.768 65.1774 144.312 65.4736C143.856 65.7585 143.486 66.1515 143.201 66.6528C142.928 67.1541 142.723 67.7466 142.586 68.4302C142.461 69.1024 142.398 69.8315 142.398 70.6177ZM167.947 75.8301V67.5928C167.947 67.0003 167.85 66.4933 167.657 66.0718C167.463 65.6388 167.161 65.3027 166.751 65.0635C166.352 64.8242 165.834 64.7046 165.196 64.7046C164.649 64.7046 164.176 64.8014 163.777 64.9951C163.379 65.1774 163.071 65.4451 162.854 65.7983C162.638 66.1401 162.53 66.5446 162.53 67.0117H157.608C157.608 66.2256 157.79 65.4793 158.155 64.7729C158.519 64.0666 159.049 63.4456 159.744 62.9102C160.439 62.3633 161.265 61.936 162.222 61.6284C163.191 61.3208 164.273 61.167 165.469 61.167C166.905 61.167 168.181 61.4062 169.297 61.8848C170.414 62.3633 171.291 63.0811 171.929 64.0381C172.579 64.9951 172.903 66.1914 172.903 67.627V75.5396C172.903 76.5535 172.966 77.3853 173.091 78.0347C173.217 78.6727 173.399 79.231 173.638 79.7095V80H168.665C168.426 79.4987 168.243 78.8721 168.118 78.1201C168.004 77.3568 167.947 76.5934 167.947 75.8301ZM168.597 68.7378L168.631 71.5234H165.879C165.23 71.5234 164.666 71.5975 164.188 71.7456C163.709 71.8937 163.316 72.1045 163.008 72.3779C162.701 72.64 162.473 72.9476 162.325 73.3008C162.188 73.654 162.12 74.0413 162.12 74.4629C162.12 74.8844 162.216 75.2661 162.41 75.6079C162.604 75.9383 162.883 76.2004 163.248 76.394C163.612 76.5763 164.039 76.6675 164.529 76.6675C165.27 76.6675 165.914 76.5194 166.46 76.2231C167.007 75.9269 167.429 75.5623 167.725 75.1294C168.033 74.6965 168.192 74.2863 168.204 73.8989L169.502 75.9839C169.32 76.451 169.069 76.9352 168.75 77.4365C168.443 77.9378 168.05 78.4106 167.571 78.855C167.093 79.2879 166.517 79.6468 165.845 79.9316C165.173 80.2051 164.375 80.3418 163.453 80.3418C162.279 80.3418 161.214 80.1082 160.257 79.6411C159.311 79.1626 158.559 78.5075 158.001 77.6758C157.454 76.8327 157.181 75.8757 157.181 74.8047C157.181 73.8363 157.363 72.9761 157.728 72.2241C158.092 71.4722 158.628 70.8398 159.334 70.3271C160.052 69.8031 160.946 69.41 162.017 69.1479C163.088 68.8745 164.33 68.7378 165.743 68.7378H168.597ZM195.838 59.3726L189.07 80H183.619L192.864 55.1172H196.333L195.838 59.3726ZM201.46 80L194.676 59.3726L194.129 55.1172H197.632L206.929 80H201.46ZM201.153 70.7373V74.7534H188.011V70.7373H201.153ZM214.124 53.75V80H209.185V53.75H214.124ZM245.21 76.001V80H227.574V76.001H245.21ZM244.954 57.9712L229.847 80H226.241V77.0605L241.468 55.1172H244.954V57.9712ZM243.194 55.1172V59.1333H226.258V55.1172H243.194ZM258.147 75.8301V67.5928C258.147 67.0003 258.051 66.4933 257.857 66.0718C257.663 65.6388 257.361 65.3027 256.951 65.0635C256.552 64.8242 256.034 64.7046 255.396 64.7046C254.849 64.7046 254.376 64.8014 253.978 64.9951C253.579 65.1774 253.271 65.4451 253.055 65.7983C252.838 66.1401 252.73 66.5446 252.73 67.0117H247.808C247.808 66.2256 247.99 65.4793 248.355 64.7729C248.72 64.0666 249.249 63.4456 249.944 62.9102C250.639 62.3633 251.465 61.936 252.422 61.6284C253.391 61.3208 254.473 61.167 255.669 61.167C257.105 61.167 258.381 61.4062 259.498 61.8848C260.614 62.3633 261.491 63.0811 262.129 64.0381C262.779 64.9951 263.104 66.1914 263.104 67.627V75.5396C263.104 76.5535 263.166 77.3853 263.292 78.0347C263.417 78.6727 263.599 79.231 263.838 79.7095V80H258.865C258.626 79.4987 258.444 78.8721 258.318 78.1201C258.204 77.3568 258.147 76.5934 258.147 75.8301ZM258.797 68.7378L258.831 71.5234H256.08C255.43 71.5234 254.866 71.5975 254.388 71.7456C253.909 71.8937 253.516 72.1045 253.208 72.3779C252.901 72.64 252.673 72.9476 252.525 73.3008C252.388 73.654 252.32 74.0413 252.32 74.4629C252.32 74.8844 252.417 75.2661 252.61 75.6079C252.804 75.9383 253.083 76.2004 253.448 76.394C253.812 76.5763 254.24 76.6675 254.729 76.6675C255.47 76.6675 256.114 76.5194 256.661 76.2231C257.208 75.9269 257.629 75.5623 257.925 75.1294C258.233 74.6965 258.392 74.2863 258.404 73.8989L259.703 75.9839C259.52 76.451 259.27 76.9352 258.951 77.4365C258.643 77.9378 258.25 78.4106 257.771 78.855C257.293 79.2879 256.718 79.6468 256.045 79.9316C255.373 80.2051 254.576 80.3418 253.653 80.3418C252.479 80.3418 251.414 80.1082 250.457 79.6411C249.511 79.1626 248.759 78.5075 248.201 77.6758C247.654 76.8327 247.381 75.8757 247.381 74.8047C247.381 73.8363 247.563 72.9761 247.928 72.2241C248.292 71.4722 248.828 70.8398 249.534 70.3271C250.252 69.8031 251.146 69.41 252.217 69.1479C253.288 68.8745 254.53 68.7378 255.943 68.7378H258.797ZM271.7 53.75V80H266.778V53.75H271.7ZM270.999 70.105H269.649C269.66 68.8175 269.831 67.6326 270.162 66.5503C270.492 65.4565 270.965 64.5109 271.58 63.7134C272.195 62.9045 272.93 62.2778 273.785 61.8335C274.651 61.3892 275.608 61.167 276.656 61.167C277.567 61.167 278.393 61.298 279.134 61.5601C279.886 61.8107 280.529 62.2209 281.065 62.7905C281.612 63.3488 282.033 64.0837 282.33 64.9951C282.626 65.9066 282.774 67.0117 282.774 68.3105V80H277.818V68.2764C277.818 67.4561 277.698 66.8123 277.459 66.3452C277.231 65.8667 276.895 65.5306 276.451 65.3369C276.018 65.1318 275.482 65.0293 274.844 65.0293C274.138 65.0293 273.534 65.1603 273.033 65.4224C272.543 65.6844 272.15 66.049 271.854 66.5161C271.557 66.9718 271.341 67.5073 271.204 68.1226C271.067 68.7378 270.999 69.3986 270.999 70.105ZM296.497 75.8301V67.5928C296.497 67.0003 296.4 66.4933 296.207 66.0718C296.013 65.6388 295.711 65.3027 295.301 65.0635C294.902 64.8242 294.384 64.7046 293.746 64.7046C293.199 64.7046 292.726 64.8014 292.327 64.9951C291.928 65.1774 291.621 65.4451 291.404 65.7983C291.188 66.1401 291.08 66.5446 291.08 67.0117H286.158C286.158 66.2256 286.34 65.4793 286.705 64.7729C287.069 64.0666 287.599 63.4456 288.294 62.9102C288.989 62.3633 289.815 61.936 290.772 61.6284C291.74 61.3208 292.823 61.167 294.019 61.167C295.455 61.167 296.731 61.4062 297.847 61.8848C298.964 62.3633 299.841 63.0811 300.479 64.0381C301.128 64.9951 301.453 66.1914 301.453 67.627V75.5396C301.453 76.5535 301.516 77.3853 301.641 78.0347C301.766 78.6727 301.949 79.231 302.188 79.7095V80H297.215C296.976 79.4987 296.793 78.8721 296.668 78.1201C296.554 77.3568 296.497 76.5934 296.497 75.8301ZM297.146 68.7378L297.181 71.5234H294.429C293.78 71.5234 293.216 71.5975 292.737 71.7456C292.259 71.8937 291.866 72.1045 291.558 72.3779C291.25 72.64 291.023 72.9476 290.875 73.3008C290.738 73.654 290.669 74.0413 290.669 74.4629C290.669 74.8844 290.766 75.2661 290.96 75.6079C291.154 75.9383 291.433 76.2004 291.797 76.394C292.162 76.5763 292.589 76.6675 293.079 76.6675C293.82 76.6675 294.463 76.5194 295.01 76.2231C295.557 75.9269 295.979 75.5623 296.275 75.1294C296.583 74.6965 296.742 74.2863 296.753 73.8989L298.052 75.9839C297.87 76.451 297.619 76.9352 297.3 77.4365C296.993 77.9378 296.6 78.4106 296.121 78.855C295.643 79.2879 295.067 79.6468 294.395 79.9316C293.723 80.2051 292.925 80.3418 292.002 80.3418C290.829 80.3418 289.764 80.1082 288.807 79.6411C287.861 79.1626 287.109 78.5075 286.551 77.6758C286.004 76.8327 285.73 75.8757 285.73 74.8047C285.73 73.8363 285.913 72.9761 286.277 72.2241C286.642 71.4722 287.177 70.8398 287.884 70.3271C288.602 69.8031 289.496 69.41 290.567 69.1479C291.638 68.8745 292.88 68.7378 294.292 68.7378H297.146ZM305.247 53.75H310.169V75.7617L309.673 80H305.247V53.75ZM321.875 70.5664V70.9253C321.875 72.3039 321.727 73.5685 321.431 74.7192C321.146 75.87 320.702 76.8669 320.098 77.71C319.494 78.5417 318.742 79.1911 317.842 79.6582C316.954 80.1139 315.905 80.3418 314.698 80.3418C313.57 80.3418 312.59 80.1139 311.758 79.6582C310.938 79.2025 310.249 78.5588 309.69 77.7271C309.132 76.8953 308.682 75.9212 308.34 74.8047C307.999 73.6882 307.742 72.4691 307.571 71.1475V70.3613C307.742 69.0397 307.999 67.8206 308.34 66.7041C308.682 65.5876 309.132 64.6134 309.69 63.7817C310.249 62.95 310.938 62.3063 311.758 61.8506C312.579 61.3949 313.547 61.167 314.664 61.167C315.883 61.167 316.942 61.4006 317.842 61.8677C318.754 62.3234 319.506 62.9728 320.098 63.8159C320.702 64.6476 321.146 65.6388 321.431 66.7896C321.727 67.9289 321.875 69.1878 321.875 70.5664ZM316.954 70.9253V70.5664C316.954 69.8145 316.897 69.1081 316.783 68.4473C316.68 67.7751 316.498 67.1883 316.236 66.687C315.974 66.1743 315.615 65.7699 315.159 65.4736C314.715 65.1774 314.139 65.0293 313.433 65.0293C312.761 65.0293 312.191 65.1432 311.724 65.3711C311.257 65.599 310.87 65.918 310.562 66.3281C310.266 66.7383 310.044 67.2282 309.896 67.7979C309.747 68.3561 309.656 68.9714 309.622 69.6436V71.8823C309.656 72.7824 309.804 73.5799 310.066 74.2749C310.34 74.9585 310.75 75.4997 311.297 75.8984C311.855 76.2858 312.579 76.4795 313.467 76.4795C314.162 76.4795 314.738 76.3428 315.193 76.0693C315.649 75.7959 316.002 75.4085 316.253 74.9072C316.515 74.4059 316.697 73.8192 316.8 73.147C316.902 72.4634 316.954 71.7228 316.954 70.9253ZM330.13 61.5088V80H325.191V61.5088H330.13ZM324.883 56.6895C324.883 55.9717 325.134 55.3792 325.635 54.9121C326.137 54.445 326.809 54.2114 327.652 54.2114C328.484 54.2114 329.15 54.445 329.651 54.9121C330.164 55.3792 330.42 55.9717 330.42 56.6895C330.42 57.4072 330.164 57.9997 329.651 58.4668C329.15 58.9339 328.484 59.1675 327.652 59.1675C326.809 59.1675 326.137 58.9339 325.635 58.4668C325.134 57.9997 324.883 57.4072 324.883 56.6895Z" fill="#888888"/>
<rect x="92" y="181" width="1179" height="80" rx="13.3333" fill="#CCCCCC"/>
<rect x="107" y="196.333" width="208" height="49.3333" rx="4.66667" fill="#888888" stroke="#888888" stroke-width="4"/>
<path d="M187.573 213.167V228.333H183.917V213.167H187.573ZM196.625 213.167L190.75 220.854L187.312 224.615L186.646 221.26L188.844 217.927L192.115 213.167H196.625ZM192.302 228.333L188.385 221.5L191.229 219.406L196.625 228.333H192.302ZM196.667 222.812V222.594C196.667 221.767 196.785 221.007 197.021 220.312C197.257 219.611 197.604 219.003 198.062 218.49C198.521 217.976 199.087 217.576 199.76 217.292C200.434 217 201.212 216.854 202.094 216.854C202.983 216.854 203.764 217 204.437 217.292C205.118 217.576 205.687 217.976 206.146 218.49C206.604 219.003 206.951 219.611 207.187 220.312C207.424 221.007 207.542 221.767 207.542 222.594V222.812C207.542 223.632 207.424 224.392 207.187 225.094C206.951 225.788 206.604 226.396 206.146 226.917C205.687 227.431 205.122 227.83 204.448 228.115C203.774 228.399 202.997 228.542 202.115 228.542C201.233 228.542 200.451 228.399 199.771 228.115C199.09 227.83 198.521 227.431 198.062 226.917C197.604 226.396 197.257 225.788 197.021 225.094C196.785 224.392 196.667 223.632 196.667 222.812ZM200.177 222.594V222.812C200.177 223.236 200.208 223.632 200.271 224C200.333 224.368 200.437 224.691 200.583 224.969C200.729 225.24 200.927 225.451 201.177 225.604C201.427 225.757 201.74 225.833 202.115 225.833C202.483 225.833 202.788 225.757 203.031 225.604C203.281 225.451 203.479 225.24 203.625 224.969C203.771 224.691 203.875 224.368 203.937 224C204 223.632 204.031 223.236 204.031 222.812V222.594C204.031 222.184 204 221.799 203.937 221.437C203.875 221.069 203.771 220.747 203.625 220.469C203.479 220.184 203.281 219.962 203.031 219.802C202.781 219.642 202.469 219.562 202.094 219.562C201.726 219.562 201.417 219.642 201.167 219.802C200.924 219.962 200.729 220.184 200.583 220.469C200.437 220.747 200.333 221.069 200.271 221.437C200.208 221.799 200.177 222.184 200.177 222.594ZM215.042 217.062V219.5H208.25V217.062H215.042ZM209.677 214.26H213.187V224.656C213.187 224.955 213.222 225.187 213.292 225.354C213.361 225.514 213.479 225.628 213.646 225.698C213.819 225.76 214.049 225.792 214.333 225.792C214.535 225.792 214.701 225.788 214.833 225.781C214.965 225.767 215.09 225.75 215.208 225.729V228.24C214.91 228.337 214.597 228.41 214.271 228.458C213.944 228.514 213.597 228.542 213.229 228.542C212.479 228.542 211.837 228.424 211.302 228.187C210.774 227.951 210.372 227.58 210.094 227.073C209.816 226.566 209.677 225.906 209.677 225.094V214.26ZM220.146 212.333V228.333H216.625V212.333H220.146ZM226.021 217.062V228.333H222.5V217.062H226.021ZM222.292 214.156C222.292 213.656 222.472 213.247 222.833 212.927C223.194 212.608 223.663 212.448 224.24 212.448C224.816 212.448 225.285 212.608 225.646 212.927C226.007 213.247 226.187 213.656 226.187 214.156C226.187 214.656 226.007 215.066 225.646 215.385C225.285 215.705 224.816 215.865 224.24 215.865C223.663 215.865 223.194 215.705 222.833 215.385C222.472 215.066 222.292 214.656 222.292 214.156ZM231.635 219.469V228.333H228.125V217.062H231.417L231.635 219.469ZM231.219 222.312L230.396 222.333C230.396 221.472 230.5 220.705 230.708 220.031C230.917 219.351 231.212 218.774 231.594 218.302C231.976 217.83 232.431 217.472 232.958 217.229C233.493 216.979 234.087 216.854 234.74 216.854C235.26 216.854 235.736 216.931 236.167 217.083C236.604 217.236 236.979 217.483 237.292 217.823C237.611 218.163 237.854 218.615 238.021 219.177C238.194 219.733 238.281 220.42 238.281 221.24V228.333H234.75V221.229C234.75 220.778 234.687 220.434 234.562 220.198C234.437 219.955 234.257 219.788 234.021 219.698C233.785 219.608 233.497 219.562 233.156 219.562C232.795 219.562 232.49 219.632 232.24 219.771C231.99 219.91 231.788 220.104 231.635 220.354C231.49 220.597 231.382 220.885 231.312 221.219C231.25 221.552 231.219 221.917 231.219 222.312Z" fill="white"/>
<rect x="339" y="196.333" width="208" height="49.3333" rx="4.66667" fill="#888888" stroke="#888888" stroke-width="4"/>
<path d="M418.844 213.167V228.333H415.198L409.833 218.896V228.333H406.177V213.167H409.833L415.198 222.604V213.167H418.844ZM420.552 222.812V222.594C420.552 221.767 420.67 221.007 420.906 220.312C421.142 219.611 421.49 219.003 421.948 218.49C422.406 217.976 422.972 217.576 423.646 217.292C424.319 217 425.097 216.854 425.979 216.854C426.868 216.854 427.649 217 428.323 217.292C429.003 217.576 429.573 217.976 430.031 218.49C430.49 219.003 430.837 219.611 431.073 220.312C431.309 221.007 431.427 221.767 431.427 222.594V222.812C431.427 223.632 431.309 224.392 431.073 225.094C430.837 225.788 430.49 226.396 430.031 226.917C429.573 227.431 429.007 227.83 428.333 228.115C427.66 228.399 426.882 228.542 426 228.542C425.118 228.542 424.337 228.399 423.656 228.115C422.976 227.83 422.406 227.431 421.948 226.917C421.49 226.396 421.142 225.788 420.906 225.094C420.67 224.392 420.552 223.632 420.552 222.812ZM424.062 222.594V222.812C424.062 223.236 424.094 223.632 424.156 224C424.219 224.368 424.323 224.691 424.469 224.969C424.615 225.24 424.812 225.451 425.062 225.604C425.312 225.757 425.625 225.833 426 225.833C426.368 225.833 426.674 225.757 426.917 225.604C427.167 225.451 427.365 225.24 427.51 224.969C427.656 224.691 427.76 224.368 427.823 224C427.885 223.632 427.917 223.236 427.917 222.812V222.594C427.917 222.184 427.885 221.799 427.823 221.437C427.76 221.069 427.656 220.747 427.51 220.469C427.365 220.184 427.167 219.962 426.917 219.802C426.667 219.642 426.354 219.562 425.979 219.562C425.611 219.562 425.302 219.642 425.052 219.802C424.809 219.962 424.615 220.184 424.469 220.469C424.323 220.747 424.219 221.069 424.156 221.437C424.094 221.799 424.062 222.184 424.062 222.594ZM439.469 225.75V212.333H443V228.333H439.833L439.469 225.75ZM432.552 222.833V222.615C432.552 221.76 432.646 220.983 432.833 220.281C433.021 219.573 433.299 218.965 433.667 218.458C434.035 217.944 434.493 217.549 435.042 217.271C435.59 216.993 436.222 216.854 436.938 216.854C437.576 216.854 438.135 217.003 438.615 217.302C439.094 217.594 439.503 218.003 439.844 218.531C440.184 219.059 440.462 219.677 440.677 220.385C440.892 221.087 441.056 221.844 441.167 222.656V222.917C441.056 223.681 440.892 224.403 440.677 225.083C440.462 225.757 440.184 226.354 439.844 226.875C439.503 227.396 439.09 227.806 438.604 228.104C438.125 228.396 437.563 228.542 436.917 228.542C436.201 228.542 435.569 228.399 435.021 228.115C434.479 227.83 434.024 227.431 433.656 226.917C433.295 226.403 433.021 225.799 432.833 225.104C432.646 224.41 432.552 223.653 432.552 222.833ZM436.063 222.615V222.833C436.063 223.257 436.09 223.649 436.146 224.01C436.201 224.372 436.295 224.691 436.427 224.969C436.566 225.24 436.747 225.451 436.969 225.604C437.198 225.757 437.479 225.833 437.813 225.833C438.264 225.833 438.635 225.726 438.927 225.51C439.226 225.295 439.444 224.99 439.583 224.594C439.729 224.198 439.792 223.733 439.771 223.198V222.375C439.785 221.917 439.753 221.514 439.677 221.167C439.601 220.812 439.479 220.517 439.313 220.281C439.153 220.045 438.948 219.868 438.698 219.75C438.455 219.625 438.167 219.562 437.833 219.562C437.507 219.562 437.229 219.639 437 219.792C436.778 219.944 436.597 220.16 436.458 220.437C436.319 220.708 436.219 221.031 436.156 221.406C436.094 221.774 436.063 222.177 436.063 222.615ZM450.448 228.542C449.531 228.542 448.712 228.399 447.99 228.115C447.267 227.823 446.656 227.424 446.156 226.917C445.663 226.41 445.285 225.826 445.021 225.167C444.764 224.507 444.635 223.809 444.635 223.073V222.677C444.635 221.851 444.75 221.087 444.979 220.385C445.208 219.677 445.549 219.059 446 218.531C446.451 218.003 447.017 217.594 447.698 217.302C448.378 217.003 449.17 216.854 450.073 216.854C450.872 216.854 451.587 216.983 452.219 217.24C452.851 217.497 453.385 217.865 453.823 218.344C454.267 218.823 454.604 219.403 454.833 220.083C455.069 220.764 455.188 221.528 455.188 222.375V223.802H445.979V221.604H451.76V221.333C451.767 220.958 451.701 220.639 451.563 220.375C451.431 220.111 451.236 219.91 450.979 219.771C450.722 219.632 450.41 219.562 450.042 219.562C449.66 219.562 449.344 219.646 449.094 219.812C448.851 219.979 448.66 220.208 448.521 220.5C448.389 220.785 448.295 221.115 448.24 221.49C448.184 221.865 448.156 222.26 448.156 222.677V223.073C448.156 223.49 448.212 223.868 448.323 224.208C448.441 224.549 448.608 224.84 448.823 225.083C449.045 225.319 449.309 225.503 449.615 225.635C449.927 225.767 450.281 225.833 450.677 225.833C451.156 225.833 451.628 225.743 452.094 225.562C452.559 225.382 452.958 225.083 453.292 224.667L454.885 226.562C454.656 226.889 454.33 227.205 453.906 227.51C453.49 227.816 452.99 228.066 452.406 228.26C451.823 228.448 451.17 228.542 450.448 228.542ZM462.813 223.573V213.167H466.458V223.573C466.458 224.587 466.226 225.465 465.76 226.208C465.302 226.951 464.677 227.528 463.885 227.937C463.101 228.34 462.219 228.542 461.24 228.542C460.226 228.542 459.323 228.372 458.531 228.031C457.747 227.691 457.128 227.167 456.677 226.458C456.233 225.75 456.01 224.847 456.01 223.75H459.677C459.677 224.264 459.736 224.667 459.854 224.958C459.972 225.243 460.146 225.444 460.375 225.562C460.611 225.674 460.899 225.729 461.24 225.729C461.573 225.729 461.854 225.646 462.083 225.479C462.319 225.306 462.5 225.059 462.625 224.74C462.75 224.413 462.813 224.024 462.813 223.573ZM476.594 224.302C476.594 224.066 476.559 223.854 476.49 223.667C476.42 223.472 476.292 223.292 476.104 223.125C475.917 222.958 475.646 222.792 475.292 222.625C474.944 222.451 474.486 222.271 473.917 222.083C473.25 221.861 472.608 221.611 471.99 221.333C471.372 221.049 470.819 220.719 470.333 220.344C469.847 219.962 469.462 219.517 469.177 219.01C468.892 218.497 468.75 217.899 468.75 217.219C468.75 216.566 468.896 215.979 469.188 215.458C469.479 214.931 469.885 214.483 470.406 214.115C470.934 213.74 471.552 213.455 472.26 213.26C472.969 213.059 473.743 212.958 474.583 212.958C475.694 212.958 476.674 213.153 477.521 213.542C478.375 213.924 479.042 214.469 479.521 215.177C480.007 215.878 480.25 216.708 480.25 217.667H476.615C476.615 217.285 476.535 216.948 476.375 216.656C476.222 216.365 475.99 216.135 475.677 215.969C475.365 215.802 474.972 215.719 474.5 215.719C474.042 215.719 473.656 215.788 473.344 215.927C473.031 216.066 472.795 216.253 472.635 216.49C472.476 216.719 472.396 216.972 472.396 217.25C472.396 217.479 472.458 217.687 472.583 217.875C472.715 218.056 472.899 218.226 473.135 218.385C473.378 218.545 473.67 218.698 474.01 218.844C474.358 218.99 474.747 219.132 475.177 219.271C475.983 219.528 476.698 219.816 477.323 220.135C477.955 220.448 478.486 220.806 478.917 221.208C479.354 221.604 479.684 222.056 479.906 222.562C480.135 223.069 480.25 223.642 480.25 224.281C480.25 224.962 480.118 225.566 479.854 226.094C479.59 226.622 479.212 227.069 478.719 227.437C478.226 227.799 477.635 228.073 476.948 228.26C476.26 228.448 475.493 228.542 474.646 228.542C473.868 228.542 473.101 228.444 472.344 228.25C471.594 228.049 470.913 227.743 470.302 227.333C469.691 226.917 469.201 226.385 468.833 225.74C468.472 225.087 468.292 224.312 468.292 223.417H471.958C471.958 223.861 472.017 224.236 472.135 224.542C472.253 224.847 472.427 225.094 472.656 225.281C472.885 225.462 473.167 225.594 473.5 225.677C473.833 225.753 474.215 225.792 474.646 225.792C475.111 225.792 475.486 225.726 475.771 225.594C476.056 225.455 476.264 225.274 476.396 225.052C476.528 224.823 476.594 224.573 476.594 224.302Z" fill="white"/>
<rect x="571" y="196.333" width="208" height="49.3333" rx="4.66667" fill="#888888" stroke="#888888" stroke-width="4"/>
<path d="M630.656 213.167H633.635L637.021 223.719L640.406 213.167H643.385L638.229 228.333H635.813L630.656 213.167ZM628.844 213.167H631.927L632.5 224.792V228.333H628.844V213.167ZM642.115 213.167H645.208V228.333H641.542V224.792L642.115 213.167ZM646.948 222.812V222.594C646.948 221.767 647.066 221.007 647.302 220.312C647.538 219.611 647.885 219.003 648.344 218.49C648.802 217.976 649.368 217.576 650.042 217.292C650.715 217 651.493 216.854 652.375 216.854C653.264 216.854 654.045 217 654.719 217.292C655.399 217.576 655.969 217.976 656.427 218.49C656.885 219.003 657.233 219.611 657.469 220.312C657.705 221.007 657.823 221.767 657.823 222.594V222.812C657.823 223.632 657.705 224.392 657.469 225.094C657.233 225.788 656.885 226.396 656.427 226.917C655.969 227.431 655.403 227.83 654.729 228.115C654.056 228.399 653.278 228.542 652.396 228.542C651.514 228.542 650.733 228.399 650.052 228.115C649.372 227.83 648.802 227.431 648.344 226.917C647.885 226.396 647.538 225.788 647.302 225.094C647.066 224.392 646.948 223.632 646.948 222.812ZM650.458 222.594V222.812C650.458 223.236 650.49 223.632 650.552 224C650.615 224.368 650.719 224.691 650.865 224.969C651.01 225.24 651.208 225.451 651.458 225.604C651.708 225.757 652.021 225.833 652.396 225.833C652.764 225.833 653.069 225.757 653.313 225.604C653.563 225.451 653.76 225.24 653.906 224.969C654.052 224.691 654.156 224.368 654.219 224C654.281 223.632 654.313 223.236 654.313 222.812V222.594C654.313 222.184 654.281 221.799 654.219 221.437C654.156 221.069 654.052 220.747 653.906 220.469C653.76 220.184 653.563 219.962 653.313 219.802C653.063 219.642 652.75 219.562 652.375 219.562C652.007 219.562 651.698 219.642 651.448 219.802C651.205 219.962 651.01 220.184 650.865 220.469C650.719 220.747 650.615 221.069 650.552 221.437C650.49 221.799 650.458 222.184 650.458 222.594ZM662.833 219.469V228.333H659.323V217.062H662.615L662.833 219.469ZM662.417 222.312L661.594 222.333C661.594 221.472 661.698 220.705 661.906 220.031C662.115 219.351 662.41 218.774 662.792 218.302C663.174 217.83 663.628 217.472 664.156 217.229C664.691 216.979 665.285 216.854 665.938 216.854C666.458 216.854 666.934 216.931 667.365 217.083C667.802 217.236 668.177 217.483 668.49 217.823C668.809 218.163 669.052 218.615 669.219 219.177C669.392 219.733 669.479 220.42 669.479 221.24V228.333H665.948V221.229C665.948 220.778 665.885 220.434 665.76 220.198C665.635 219.955 665.455 219.788 665.219 219.698C664.983 219.608 664.694 219.562 664.354 219.562C663.993 219.562 663.688 219.632 663.438 219.771C663.188 219.91 662.986 220.104 662.833 220.354C662.688 220.597 662.58 220.885 662.51 221.219C662.448 221.552 662.417 221.917 662.417 222.312ZM678.51 217.062H681.698V227.896C681.698 228.937 681.458 229.819 680.979 230.542C680.5 231.271 679.83 231.823 678.969 232.198C678.115 232.58 677.115 232.771 675.969 232.771C675.462 232.771 674.944 232.705 674.417 232.573C673.889 232.448 673.396 232.26 672.938 232.01C672.479 231.76 672.094 231.451 671.781 231.083L673.25 229.021C673.535 229.34 673.892 229.611 674.323 229.833C674.753 230.062 675.26 230.177 675.844 230.177C676.351 230.177 676.774 230.087 677.115 229.906C677.462 229.726 677.726 229.462 677.906 229.115C678.087 228.774 678.177 228.361 678.177 227.875V219.729L678.51 217.062ZM671.021 222.833V222.615C671.021 221.76 671.125 220.983 671.333 220.281C671.549 219.573 671.854 218.965 672.25 218.458C672.653 217.944 673.139 217.549 673.708 217.271C674.278 216.993 674.92 216.854 675.635 216.854C676.406 216.854 677.038 217.003 677.531 217.302C678.031 217.594 678.431 218.003 678.729 218.531C679.035 219.059 679.271 219.677 679.438 220.385C679.611 221.087 679.757 221.844 679.875 222.656V222.917C679.757 223.681 679.594 224.403 679.385 225.083C679.184 225.757 678.92 226.354 678.594 226.875C678.267 227.396 677.858 227.806 677.365 228.104C676.878 228.396 676.295 228.542 675.615 228.542C674.906 228.542 674.267 228.399 673.698 228.115C673.135 227.83 672.653 227.431 672.25 226.917C671.854 226.403 671.549 225.799 671.333 225.104C671.125 224.41 671.021 223.653 671.021 222.833ZM674.531 222.615V222.833C674.531 223.257 674.569 223.649 674.646 224.01C674.729 224.372 674.854 224.691 675.021 224.969C675.188 225.24 675.392 225.451 675.635 225.604C675.885 225.757 676.177 225.833 676.51 225.833C677.017 225.833 677.427 225.726 677.74 225.51C678.052 225.295 678.278 224.99 678.417 224.594C678.556 224.198 678.615 223.733 678.594 223.198V222.375C678.608 221.917 678.576 221.514 678.5 221.167C678.424 220.812 678.302 220.517 678.135 220.281C677.976 220.045 677.76 219.868 677.49 219.75C677.226 219.625 676.906 219.562 676.531 219.562C676.205 219.562 675.917 219.639 675.667 219.792C675.417 219.944 675.208 220.16 675.042 220.437C674.875 220.708 674.747 221.031 674.656 221.406C674.573 221.774 674.531 222.177 674.531 222.615ZM683.281 222.812V222.594C683.281 221.767 683.399 221.007 683.635 220.312C683.872 219.611 684.219 219.003 684.677 218.49C685.135 217.976 685.701 217.576 686.375 217.292C687.049 217 687.826 216.854 688.708 216.854C689.597 216.854 690.378 217 691.052 217.292C691.733 217.576 692.302 217.976 692.76 218.49C693.219 219.003 693.566 219.611 693.802 220.312C694.038 221.007 694.156 221.767 694.156 222.594V222.812C694.156 223.632 694.038 224.392 693.802 225.094C693.566 225.788 693.219 226.396 692.76 226.917C692.302 227.431 691.736 227.83 691.063 228.115C690.389 228.399 689.611 228.542 688.729 228.542C687.847 228.542 687.066 228.399 686.385 228.115C685.705 227.83 685.135 227.431 684.677 226.917C684.219 226.396 683.872 225.788 683.635 225.094C683.399 224.392 683.281 223.632 683.281 222.812ZM686.792 222.594V222.812C686.792 223.236 686.823 223.632 686.885 224C686.948 224.368 687.052 224.691 687.198 224.969C687.344 225.24 687.542 225.451 687.792 225.604C688.042 225.757 688.354 225.833 688.729 225.833C689.097 225.833 689.403 225.757 689.646 225.604C689.896 225.451 690.094 225.24 690.24 224.969C690.385 224.691 690.49 224.368 690.552 224C690.615 223.632 690.646 223.236 690.646 222.812V222.594C690.646 222.184 690.615 221.799 690.552 221.437C690.49 221.069 690.385 220.747 690.24 220.469C690.094 220.184 689.896 219.962 689.646 219.802C689.396 219.642 689.083 219.562 688.708 219.562C688.34 219.562 688.031 219.642 687.781 219.802C687.538 219.962 687.344 220.184 687.198 220.469C687.052 220.747 686.948 221.069 686.885 221.437C686.823 221.799 686.792 222.184 686.792 222.594ZM700.813 228.333H697.448L697.469 225.521H700.813C701.507 225.521 702.094 225.354 702.573 225.021C703.059 224.687 703.427 224.191 703.677 223.531C703.934 222.865 704.063 222.045 704.063 221.073V220.417C704.063 219.687 703.99 219.049 703.844 218.5C703.705 217.944 703.497 217.483 703.219 217.115C702.941 216.74 702.594 216.458 702.177 216.271C701.767 216.083 701.295 215.99 700.76 215.99H697.385V213.167H700.76C701.788 213.167 702.729 213.344 703.583 213.698C704.444 214.045 705.188 214.545 705.813 215.198C706.444 215.844 706.931 216.611 707.271 217.5C707.618 218.382 707.792 219.361 707.792 220.437V221.073C707.792 222.142 707.618 223.122 707.271 224.01C706.931 224.899 706.448 225.667 705.823 226.312C705.198 226.958 704.458 227.458 703.604 227.812C702.757 228.16 701.826 228.333 700.813 228.333ZM699.542 213.167V228.333H695.885V213.167H699.542ZM715.885 221.885H711.979L711.958 219.49H715.125C715.694 219.49 716.149 219.427 716.49 219.302C716.83 219.17 717.076 218.979 717.229 218.729C717.389 218.479 717.469 218.167 717.469 217.792C717.469 217.361 717.389 217.014 717.229 216.75C717.069 216.486 716.816 216.295 716.469 216.177C716.128 216.052 715.688 215.99 715.146 215.99H713.354V228.333H709.698V213.167H715.146C716.083 213.167 716.92 213.253 717.656 213.427C718.392 213.594 719.017 213.851 719.531 214.198C720.052 214.545 720.448 214.983 720.719 215.51C720.99 216.031 721.125 216.646 721.125 217.354C721.125 217.972 720.993 218.552 720.729 219.094C720.465 219.635 720.024 220.076 719.406 220.417C718.795 220.75 717.958 220.924 716.896 220.937L715.885 221.885ZM715.74 228.333H711.094L712.344 225.521H715.74C716.24 225.521 716.639 225.444 716.938 225.292C717.243 225.132 717.462 224.924 717.594 224.667C717.733 224.403 717.802 224.111 717.802 223.792C717.802 223.403 717.736 223.066 717.604 222.781C717.479 222.497 717.278 222.278 717 222.125C716.722 221.965 716.351 221.885 715.885 221.885H712.813L712.833 219.49H716.51L717.365 220.448C718.378 220.406 719.181 220.549 719.771 220.875C720.368 221.201 720.795 221.632 721.052 222.167C721.309 222.701 721.438 223.26 721.438 223.844C721.438 224.837 721.222 225.667 720.792 226.333C720.368 227 719.733 227.5 718.885 227.833C718.038 228.167 716.99 228.333 715.74 228.333Z" fill="white"/>
<rect x="803" y="196.333" width="208" height="49.3333" rx="4.66667" fill="#888888" stroke="#888888" stroke-width="4"/>
<path d="M867.75 225.521V228.333H859.667V225.521H867.75ZM860.969 213.167V228.333H857.313V213.167H860.969ZM866.708 219.187V221.906H859.667V219.187H866.708ZM867.781 213.167V215.99H859.667V213.167H867.781ZM872.063 217.062L873.646 220.167L875.281 217.062H878.927L875.969 222.552L879.083 228.333H875.406L873.646 225L871.896 228.333H868.219L871.333 222.552L868.385 217.062H872.063ZM883.625 219.229V232.667H880.115V217.062H883.385L883.625 219.229ZM890.542 222.562V222.781C890.542 223.601 890.448 224.361 890.26 225.062C890.073 225.764 889.795 226.375 889.427 226.896C889.059 227.417 888.601 227.823 888.052 228.115C887.51 228.399 886.882 228.542 886.167 228.542C885.493 228.542 884.913 228.392 884.427 228.094C883.941 227.795 883.535 227.382 883.208 226.854C882.882 226.326 882.618 225.722 882.417 225.042C882.215 224.361 882.056 223.642 881.938 222.885V222.604C882.056 221.792 882.215 221.038 882.417 220.344C882.618 219.642 882.882 219.031 883.208 218.51C883.535 217.99 883.938 217.583 884.417 217.292C884.903 217 885.483 216.854 886.156 216.854C886.872 216.854 887.5 216.99 888.042 217.26C888.59 217.531 889.049 217.92 889.417 218.427C889.792 218.927 890.073 219.528 890.26 220.229C890.448 220.931 890.542 221.708 890.542 222.562ZM887.031 222.781V222.562C887.031 222.125 887 221.726 886.938 221.365C886.875 220.997 886.774 220.677 886.635 220.406C886.503 220.135 886.326 219.927 886.104 219.781C885.882 219.635 885.608 219.562 885.281 219.562C884.906 219.562 884.59 219.622 884.333 219.74C884.083 219.851 883.882 220.024 883.729 220.26C883.583 220.49 883.479 220.778 883.417 221.125C883.361 221.465 883.337 221.865 883.344 222.323V223.177C883.33 223.705 883.382 224.17 883.5 224.573C883.618 224.969 883.823 225.278 884.115 225.5C884.406 225.722 884.802 225.833 885.302 225.833C885.635 225.833 885.913 225.757 886.135 225.604C886.358 225.444 886.535 225.226 886.667 224.948C886.799 224.663 886.892 224.337 886.948 223.969C887.003 223.601 887.031 223.205 887.031 222.781ZM895.646 219.854V228.333H892.135V217.062H895.417L895.646 219.854ZM898.979 216.979L898.917 220.24C898.778 220.226 898.59 220.208 898.354 220.187C898.118 220.167 897.92 220.156 897.76 220.156C897.351 220.156 896.997 220.205 896.698 220.302C896.406 220.392 896.163 220.531 895.969 220.719C895.781 220.899 895.642 221.128 895.552 221.406C895.469 221.684 895.431 222.007 895.438 222.375L894.802 221.958C894.802 221.201 894.875 220.514 895.021 219.896C895.174 219.271 895.389 218.733 895.667 218.281C895.944 217.823 896.281 217.472 896.677 217.229C897.073 216.979 897.517 216.854 898.01 216.854C898.184 216.854 898.354 216.865 898.521 216.885C898.694 216.906 898.847 216.937 898.979 216.979ZM905.438 228.542C904.521 228.542 903.701 228.399 902.979 228.115C902.257 227.823 901.646 227.424 901.146 226.917C900.653 226.41 900.274 225.826 900.01 225.167C899.753 224.507 899.625 223.809 899.625 223.073V222.677C899.625 221.851 899.74 221.087 899.969 220.385C900.198 219.677 900.538 219.059 900.99 218.531C901.441 218.003 902.007 217.594 902.688 217.302C903.368 217.003 904.16 216.854 905.063 216.854C905.861 216.854 906.576 216.983 907.208 217.24C907.84 217.497 908.375 217.865 908.813 218.344C909.257 218.823 909.594 219.403 909.823 220.083C910.059 220.764 910.177 221.528 910.177 222.375V223.802H900.969V221.604H906.75V221.333C906.757 220.958 906.691 220.639 906.552 220.375C906.42 220.111 906.226 219.91 905.969 219.771C905.712 219.632 905.399 219.562 905.031 219.562C904.649 219.562 904.333 219.646 904.083 219.812C903.84 219.979 903.649 220.208 903.51 220.5C903.378 220.785 903.285 221.115 903.229 221.49C903.174 221.865 903.146 222.26 903.146 222.677V223.073C903.146 223.49 903.201 223.868 903.313 224.208C903.431 224.549 903.597 224.84 903.813 225.083C904.035 225.319 904.299 225.503 904.604 225.635C904.917 225.767 905.271 225.833 905.667 225.833C906.146 225.833 906.618 225.743 907.083 225.562C907.549 225.382 907.948 225.083 908.281 224.667L909.875 226.562C909.646 226.889 909.319 227.205 908.896 227.51C908.479 227.816 907.979 228.066 907.396 228.26C906.813 228.448 906.16 228.542 905.438 228.542ZM917.51 225.167C917.51 224.972 917.444 224.806 917.313 224.667C917.188 224.521 916.965 224.389 916.646 224.271C916.326 224.146 915.878 224.021 915.302 223.896C914.753 223.778 914.236 223.622 913.75 223.427C913.271 223.233 912.851 222.997 912.49 222.719C912.128 222.441 911.844 222.111 911.635 221.729C911.434 221.347 911.333 220.91 911.333 220.417C911.333 219.937 911.434 219.486 911.635 219.062C911.844 218.632 912.146 218.253 912.542 217.927C912.944 217.594 913.434 217.333 914.01 217.146C914.587 216.951 915.243 216.854 915.979 216.854C916.993 216.854 917.868 217.01 918.604 217.323C919.34 217.628 919.906 218.059 920.302 218.615C920.705 219.163 920.906 219.799 920.906 220.521H917.396C917.396 220.236 917.347 219.993 917.25 219.792C917.16 219.59 917.01 219.437 916.802 219.333C916.594 219.222 916.316 219.167 915.969 219.167C915.726 219.167 915.503 219.212 915.302 219.302C915.108 219.392 914.951 219.517 914.833 219.677C914.715 219.837 914.656 220.024 914.656 220.24C914.656 220.392 914.691 220.531 914.76 220.656C914.837 220.774 914.951 220.885 915.104 220.99C915.257 221.087 915.451 221.177 915.688 221.26C915.924 221.337 916.208 221.406 916.542 221.469C917.299 221.608 918.007 221.806 918.667 222.062C919.326 222.319 919.861 222.684 920.271 223.156C920.688 223.628 920.896 224.264 920.896 225.062C920.896 225.562 920.781 226.024 920.552 226.448C920.323 226.865 919.993 227.233 919.563 227.552C919.132 227.865 918.615 228.108 918.01 228.281C917.406 228.455 916.726 228.542 915.969 228.542C914.892 228.542 913.983 228.351 913.24 227.969C912.497 227.58 911.934 227.094 911.552 226.51C911.177 225.92 910.99 225.323 910.99 224.719H914.26C914.274 225.066 914.358 225.351 914.51 225.573C914.67 225.795 914.882 225.958 915.146 226.062C915.41 226.167 915.715 226.219 916.063 226.219C916.382 226.219 916.646 226.174 916.854 226.083C917.069 225.993 917.233 225.872 917.344 225.719C917.455 225.559 917.51 225.375 917.51 225.167ZM928.448 225.167C928.448 224.972 928.382 224.806 928.25 224.667C928.125 224.521 927.903 224.389 927.583 224.271C927.264 224.146 926.816 224.021 926.24 223.896C925.691 223.778 925.174 223.622 924.688 223.427C924.208 223.233 923.788 222.997 923.427 222.719C923.066 222.441 922.781 222.111 922.573 221.729C922.372 221.347 922.271 220.91 922.271 220.417C922.271 219.937 922.372 219.486 922.573 219.062C922.781 218.632 923.083 218.253 923.479 217.927C923.882 217.594 924.372 217.333 924.948 217.146C925.524 216.951 926.181 216.854 926.917 216.854C927.931 216.854 928.806 217.01 929.542 217.323C930.278 217.628 930.844 218.059 931.24 218.615C931.642 219.163 931.844 219.799 931.844 220.521H928.333C928.333 220.236 928.285 219.993 928.188 219.792C928.097 219.59 927.948 219.437 927.74 219.333C927.531 219.222 927.253 219.167 926.906 219.167C926.663 219.167 926.441 219.212 926.24 219.302C926.045 219.392 925.889 219.517 925.771 219.677C925.653 219.837 925.594 220.024 925.594 220.24C925.594 220.392 925.628 220.531 925.698 220.656C925.774 220.774 925.889 220.885 926.042 220.99C926.194 221.087 926.389 221.177 926.625 221.26C926.861 221.337 927.146 221.406 927.479 221.469C928.236 221.608 928.944 221.806 929.604 222.062C930.264 222.319 930.799 222.684 931.208 223.156C931.625 223.628 931.833 224.264 931.833 225.062C931.833 225.562 931.719 226.024 931.49 226.448C931.26 226.865 930.931 227.233 930.5 227.552C930.069 227.865 929.552 228.108 928.948 228.281C928.344 228.455 927.663 228.542 926.906 228.542C925.83 228.542 924.92 228.351 924.177 227.969C923.434 227.58 922.872 227.094 922.49 226.51C922.115 225.92 921.927 225.323 921.927 224.719H925.198C925.212 225.066 925.295 225.351 925.448 225.573C925.608 225.795 925.819 225.958 926.083 226.062C926.347 226.167 926.653 226.219 927 226.219C927.319 226.219 927.583 226.174 927.792 226.083C928.007 225.993 928.17 225.872 928.281 225.719C928.392 225.559 928.448 225.375 928.448 225.167ZM939.677 223.573V213.167H943.323V223.573C943.323 224.587 943.09 225.465 942.625 226.208C942.167 226.951 941.542 227.528 940.75 227.937C939.965 228.34 939.083 228.542 938.104 228.542C937.09 228.542 936.188 228.372 935.396 228.031C934.611 227.691 933.993 227.167 933.542 226.458C933.097 225.75 932.875 224.847 932.875 223.75H936.542C936.542 224.264 936.601 224.667 936.719 224.958C936.837 225.243 937.01 225.444 937.24 225.562C937.476 225.674 937.764 225.729 938.104 225.729C938.438 225.729 938.719 225.646 938.948 225.479C939.184 225.306 939.365 225.059 939.49 224.74C939.615 224.413 939.677 224.024 939.677 223.573ZM953.458 224.302C953.458 224.066 953.424 223.854 953.354 223.667C953.285 223.472 953.156 223.292 952.969 223.125C952.781 222.958 952.51 222.792 952.156 222.625C951.809 222.451 951.351 222.271 950.781 222.083C950.115 221.861 949.472 221.611 948.854 221.333C948.236 221.049 947.684 220.719 947.198 220.344C946.712 219.962 946.326 219.517 946.042 219.01C945.757 218.497 945.615 217.899 945.615 217.219C945.615 216.566 945.76 215.979 946.052 215.458C946.344 214.931 946.75 214.483 947.271 214.115C947.799 213.74 948.417 213.455 949.125 213.26C949.833 213.059 950.608 212.958 951.448 212.958C952.559 212.958 953.538 213.153 954.385 213.542C955.24 213.924 955.906 214.469 956.385 215.177C956.872 215.878 957.115 216.708 957.115 217.667H953.479C953.479 217.285 953.399 216.948 953.24 216.656C953.087 216.365 952.854 216.135 952.542 215.969C952.229 215.802 951.837 215.719 951.365 215.719C950.906 215.719 950.521 215.788 950.208 215.927C949.896 216.066 949.66 216.253 949.5 216.49C949.34 216.719 949.26 216.972 949.26 217.25C949.26 217.479 949.323 217.687 949.448 217.875C949.58 218.056 949.764 218.226 950 218.385C950.243 218.545 950.535 218.698 950.875 218.844C951.222 218.99 951.611 219.132 952.042 219.271C952.847 219.528 953.563 219.816 954.188 220.135C954.819 220.448 955.351 220.806 955.781 221.208C956.219 221.604 956.549 222.056 956.771 222.562C957 223.069 957.115 223.642 957.115 224.281C957.115 224.962 956.983 225.566 956.719 226.094C956.455 226.622 956.076 227.069 955.583 227.437C955.09 227.799 954.5 228.073 953.813 228.26C953.125 228.448 952.358 228.542 951.51 228.542C950.733 228.542 949.965 228.444 949.208 228.25C948.458 228.049 947.778 227.743 947.167 227.333C946.556 226.917 946.066 226.385 945.698 225.74C945.337 225.087 945.156 224.312 945.156 223.417H948.823C948.823 223.861 948.882 224.236 949 224.542C949.118 224.847 949.292 225.094 949.521 225.281C949.75 225.462 950.031 225.594 950.365 225.677C950.698 225.753 951.08 225.792 951.51 225.792C951.976 225.792 952.351 225.726 952.635 225.594C952.92 225.455 953.128 225.274 953.26 225.052C953.392 224.823 953.458 224.573 953.458 224.302Z" fill="white"/>
<rect x="1035" y="196.333" width="208" height="49.3333" rx="4.66667" fill="#888888" stroke="#888888" stroke-width="4"/>
<path d="M1099.82 213.167H1105.79C1106.96 213.167 1107.97 213.34 1108.83 213.687C1109.69 214.035 1110.36 214.549 1110.82 215.229C1111.3 215.91 1111.53 216.75 1111.53 217.75C1111.53 218.618 1111.4 219.344 1111.12 219.927C1110.85 220.51 1110.48 220.993 1109.99 221.375C1109.51 221.75 1108.95 222.059 1108.31 222.302L1107.11 222.979H1102.1L1102.08 220.156H1105.79C1106.26 220.156 1106.64 220.073 1106.95 219.906C1107.25 219.74 1107.48 219.503 1107.64 219.198C1107.8 218.885 1107.87 218.514 1107.87 218.083C1107.87 217.646 1107.8 217.271 1107.64 216.958C1107.48 216.646 1107.24 216.406 1106.93 216.24C1106.62 216.073 1106.24 215.99 1105.79 215.99H1103.48V228.333H1099.82V213.167ZM1108.12 228.333L1104.77 221.625L1108.65 221.604L1112.04 228.177V228.333H1108.12ZM1119.03 228.542C1118.11 228.542 1117.3 228.399 1116.57 228.115C1115.85 227.823 1115.24 227.424 1114.74 226.917C1114.25 226.41 1113.87 225.826 1113.6 225.167C1113.35 224.507 1113.22 223.809 1113.22 223.073V222.677C1113.22 221.851 1113.33 221.087 1113.56 220.385C1113.79 219.677 1114.13 219.059 1114.58 218.531C1115.03 218.003 1115.6 217.594 1116.28 217.302C1116.96 217.003 1117.75 216.854 1118.66 216.854C1119.45 216.854 1120.17 216.983 1120.8 217.24C1121.43 217.497 1121.97 217.865 1122.41 218.344C1122.85 218.823 1123.19 219.403 1123.42 220.083C1123.65 220.764 1123.77 221.528 1123.77 222.375V223.802H1114.56V221.604H1120.34V221.333C1120.35 220.958 1120.28 220.639 1120.15 220.375C1120.01 220.111 1119.82 219.91 1119.56 219.771C1119.31 219.632 1118.99 219.562 1118.62 219.562C1118.24 219.562 1117.93 219.646 1117.68 219.812C1117.43 219.979 1117.24 220.208 1117.1 220.5C1116.97 220.785 1116.88 221.115 1116.82 221.49C1116.77 221.865 1116.74 222.26 1116.74 222.677V223.073C1116.74 223.49 1116.8 223.868 1116.91 224.208C1117.02 224.549 1117.19 224.84 1117.41 225.083C1117.63 225.319 1117.89 225.503 1118.2 225.635C1118.51 225.767 1118.86 225.833 1119.26 225.833C1119.74 225.833 1120.21 225.743 1120.68 225.562C1121.14 225.382 1121.54 225.083 1121.87 224.667L1123.47 226.562C1123.24 226.889 1122.91 227.205 1122.49 227.51C1122.07 227.816 1121.57 228.066 1120.99 228.26C1120.41 228.448 1119.75 228.542 1119.03 228.542ZM1131.05 225.5V220.854C1131.05 220.535 1131.01 220.26 1130.92 220.031C1130.83 219.802 1130.68 219.625 1130.49 219.5C1130.3 219.368 1130.03 219.302 1129.71 219.302C1129.44 219.302 1129.22 219.347 1129.03 219.437C1128.84 219.528 1128.7 219.663 1128.6 219.844C1128.51 220.024 1128.46 220.253 1128.46 220.531H1124.95C1124.95 220.01 1125.06 219.528 1125.29 219.083C1125.53 218.632 1125.86 218.24 1126.29 217.906C1126.73 217.573 1127.25 217.316 1127.85 217.135C1128.47 216.948 1129.15 216.854 1129.9 216.854C1130.79 216.854 1131.59 217.003 1132.29 217.302C1133 217.601 1133.56 218.049 1133.97 218.646C1134.38 219.236 1134.58 219.979 1134.58 220.875V225.49C1134.58 226.226 1134.62 226.785 1134.71 227.167C1134.79 227.542 1134.91 227.872 1135.06 228.156V228.333H1131.54C1131.37 227.986 1131.25 227.562 1131.17 227.062C1131.09 226.556 1131.05 226.035 1131.05 225.5ZM1131.48 221.448L1131.5 223.323H1129.95C1129.62 223.323 1129.34 223.368 1129.11 223.458C1128.89 223.549 1128.71 223.674 1128.57 223.833C1128.44 223.986 1128.34 224.16 1128.28 224.354C1128.23 224.549 1128.2 224.753 1128.2 224.969C1128.2 225.177 1128.25 225.365 1128.34 225.531C1128.45 225.691 1128.59 225.816 1128.76 225.906C1128.93 225.997 1129.13 226.042 1129.34 226.042C1129.73 226.042 1130.06 225.969 1130.33 225.823C1130.61 225.67 1130.82 225.486 1130.97 225.271C1131.11 225.056 1131.19 224.854 1131.19 224.667L1131.96 226.104C1131.82 226.382 1131.66 226.663 1131.48 226.948C1131.31 227.233 1131.09 227.497 1130.82 227.74C1130.57 227.976 1130.25 228.17 1129.87 228.323C1129.5 228.469 1129.05 228.542 1128.51 228.542C1127.82 228.542 1127.18 228.399 1126.59 228.115C1126.02 227.83 1125.56 227.434 1125.21 226.927C1124.86 226.413 1124.69 225.823 1124.69 225.156C1124.69 224.573 1124.79 224.052 1125 223.594C1125.22 223.135 1125.54 222.747 1125.97 222.427C1126.4 222.108 1126.95 221.865 1127.61 221.698C1128.28 221.531 1129.07 221.448 1129.97 221.448H1131.48ZM1141.29 225.833C1141.62 225.833 1141.9 225.774 1142.12 225.656C1142.36 225.531 1142.54 225.358 1142.66 225.135C1142.78 224.906 1142.84 224.632 1142.83 224.312H1146.14C1146.14 225.16 1145.93 225.903 1145.51 226.542C1145.09 227.174 1144.52 227.667 1143.8 228.021C1143.09 228.368 1142.28 228.542 1141.37 228.542C1140.49 228.542 1139.72 228.399 1139.06 228.115C1138.4 227.823 1137.85 227.42 1137.41 226.906C1136.97 226.385 1136.64 225.778 1136.42 225.083C1136.2 224.389 1136.09 223.635 1136.09 222.823V222.583C1136.09 221.771 1136.2 221.017 1136.42 220.323C1136.64 219.622 1136.97 219.014 1137.41 218.5C1137.85 217.979 1138.4 217.576 1139.05 217.292C1139.71 217 1140.48 216.854 1141.35 216.854C1142.29 216.854 1143.12 217.031 1143.83 217.385C1144.56 217.74 1145.12 218.253 1145.53 218.927C1145.94 219.601 1146.14 220.417 1146.14 221.375H1142.83C1142.84 221.035 1142.79 220.729 1142.68 220.458C1142.57 220.187 1142.39 219.972 1142.16 219.812C1141.93 219.646 1141.63 219.562 1141.27 219.562C1140.91 219.562 1140.62 219.642 1140.4 219.802C1140.17 219.962 1140 220.184 1139.89 220.469C1139.77 220.747 1139.7 221.066 1139.66 221.427C1139.62 221.788 1139.6 222.174 1139.6 222.583V222.823C1139.6 223.24 1139.62 223.632 1139.66 224C1139.7 224.361 1139.78 224.681 1139.9 224.958C1140.01 225.229 1140.18 225.444 1140.41 225.604C1140.63 225.757 1140.92 225.833 1141.29 225.833ZM1153.57 217.062V219.5H1146.78V217.062H1153.57ZM1148.21 214.26H1151.72V224.656C1151.72 224.955 1151.75 225.187 1151.82 225.354C1151.89 225.514 1152.01 225.628 1152.18 225.698C1152.35 225.76 1152.58 225.792 1152.86 225.792C1153.07 225.792 1153.23 225.788 1153.36 225.781C1153.5 225.767 1153.62 225.75 1153.74 225.729V228.24C1153.44 228.337 1153.13 228.41 1152.8 228.458C1152.48 228.514 1152.13 228.542 1151.76 228.542C1151.01 228.542 1150.37 228.424 1149.83 228.187C1149.31 227.951 1148.9 227.58 1148.62 227.073C1148.35 226.566 1148.21 225.906 1148.21 225.094V214.26ZM1161.17 223.573V213.167H1164.81V223.573C1164.81 224.587 1164.58 225.465 1164.11 226.208C1163.66 226.951 1163.03 227.528 1162.24 227.937C1161.45 228.34 1160.57 228.542 1159.59 228.542C1158.58 228.542 1157.68 228.372 1156.89 228.031C1156.1 227.691 1155.48 227.167 1155.03 226.458C1154.59 225.75 1154.36 224.847 1154.36 223.75H1158.03C1158.03 224.264 1158.09 224.667 1158.21 224.958C1158.33 225.243 1158.5 225.444 1158.73 225.562C1158.97 225.674 1159.25 225.729 1159.59 225.729C1159.93 225.729 1160.21 225.646 1160.44 225.479C1160.67 225.306 1160.85 225.059 1160.98 224.74C1161.1 224.413 1161.17 224.024 1161.17 223.573ZM1174.95 224.302C1174.95 224.066 1174.91 223.854 1174.84 223.667C1174.77 223.472 1174.65 223.292 1174.46 223.125C1174.27 222.958 1174 222.792 1173.65 222.625C1173.3 222.451 1172.84 222.271 1172.27 222.083C1171.6 221.861 1170.96 221.611 1170.34 221.333C1169.73 221.049 1169.17 220.719 1168.69 220.344C1168.2 219.962 1167.82 219.517 1167.53 219.01C1167.25 218.497 1167.1 217.899 1167.1 217.219C1167.1 216.566 1167.25 215.979 1167.54 215.458C1167.83 214.931 1168.24 214.483 1168.76 214.115C1169.29 213.74 1169.91 213.455 1170.61 213.26C1171.32 213.059 1172.1 212.958 1172.94 212.958C1174.05 212.958 1175.03 213.153 1175.87 213.542C1176.73 213.924 1177.4 214.469 1177.87 215.177C1178.36 215.878 1178.6 216.708 1178.6 217.667H1174.97C1174.97 217.285 1174.89 216.948 1174.73 216.656C1174.58 216.365 1174.34 216.135 1174.03 215.969C1173.72 215.802 1173.33 215.719 1172.85 215.719C1172.4 215.719 1172.01 215.788 1171.7 215.927C1171.39 216.066 1171.15 216.253 1170.99 216.49C1170.83 216.719 1170.75 216.972 1170.75 217.25C1170.75 217.479 1170.81 217.687 1170.94 217.875C1171.07 218.056 1171.25 218.226 1171.49 218.385C1171.73 218.545 1172.02 218.698 1172.36 218.844C1172.71 218.99 1173.1 219.132 1173.53 219.271C1174.34 219.528 1175.05 219.816 1175.68 220.135C1176.31 220.448 1176.84 220.806 1177.27 221.208C1177.71 221.604 1178.04 222.056 1178.26 222.562C1178.49 223.069 1178.6 223.642 1178.6 224.281C1178.6 224.962 1178.47 225.566 1178.21 226.094C1177.94 226.622 1177.57 227.069 1177.07 227.437C1176.58 227.799 1175.99 228.073 1175.3 228.26C1174.61 228.448 1173.85 228.542 1173 228.542C1172.22 228.542 1171.45 228.444 1170.7 228.25C1169.95 228.049 1169.27 227.743 1168.66 227.333C1168.05 226.917 1167.56 226.385 1167.19 225.74C1166.83 225.087 1166.65 224.312 1166.65 223.417H1170.31C1170.31 223.861 1170.37 224.236 1170.49 224.542C1170.61 224.847 1170.78 225.094 1171.01 225.281C1171.24 225.462 1171.52 225.594 1171.85 225.677C1172.19 225.753 1172.57 225.792 1173 225.792C1173.47 225.792 1173.84 225.726 1174.12 225.594C1174.41 225.455 1174.62 225.274 1174.75 225.052C1174.88 224.823 1174.95 224.573 1174.95 224.302Z" fill="white"/>
</svg>
