<svg width="1363" height="167" viewBox="0 0 1363 167" fill="none" xmlns="http://www.w3.org/2000/svg">
<rect width="1363" height="167" rx="15" fill="#F0F0F0"/>
<path d="M0 15C0 6.71573 6.71573 0 15 0H37V167H15C6.71573 167 0 160.284 0 152V15Z" fill="#424241"/>
<path d="M100.906 54.9219L93.3945 52.2383V49.0859L103.602 53.375V55.6367L100.906 54.9219ZM93.3945 57.1719L100.918 54.4297L103.602 53.7852V56.0352L93.3945 60.3242V57.1719ZM120.781 57.5352C120.781 57.2305 120.734 56.957 120.641 56.7148C120.555 56.4648 120.391 56.2383 120.148 56.0352C119.906 55.8242 119.566 55.6172 119.129 55.4141C118.691 55.2109 118.125 55 117.43 54.7812C116.656 54.5312 115.922 54.25 115.227 53.9375C114.539 53.625 113.93 53.2617 113.398 52.8477C112.875 52.4258 112.461 51.9375 112.156 51.3828C111.859 50.8281 111.711 50.1836 111.711 49.4492C111.711 48.7383 111.867 48.0938 112.18 47.5156C112.492 46.9297 112.93 46.4297 113.492 46.0156C114.055 45.5938 114.719 45.2695 115.484 45.043C116.258 44.8164 117.105 44.7031 118.027 44.7031C119.285 44.7031 120.383 44.9297 121.32 45.3828C122.258 45.8359 122.984 46.457 123.5 47.2461C124.023 48.0352 124.285 48.9375 124.285 49.9531H120.793C120.793 49.4531 120.688 49.0156 120.477 48.6406C120.273 48.2578 119.961 47.957 119.539 47.7383C119.125 47.5195 118.602 47.4102 117.969 47.4102C117.359 47.4102 116.852 47.5039 116.445 47.6914C116.039 47.8711 115.734 48.1172 115.531 48.4297C115.328 48.7344 115.227 49.0781 115.227 49.4609C115.227 49.75 115.297 50.0117 115.438 50.2461C115.586 50.4805 115.805 50.6992 116.094 50.9023C116.383 51.1055 116.738 51.2969 117.16 51.4766C117.582 51.6562 118.07 51.832 118.625 52.0039C119.555 52.2852 120.371 52.6016 121.074 52.9531C121.785 53.3047 122.379 53.6992 122.855 54.1367C123.332 54.5742 123.691 55.0703 123.934 55.625C124.176 56.1797 124.297 56.8086 124.297 57.5117C124.297 58.2539 124.152 58.918 123.863 59.5039C123.574 60.0898 123.156 60.5859 122.609 60.9922C122.062 61.3984 121.41 61.707 120.652 61.918C119.895 62.1289 119.047 62.2344 118.109 62.2344C117.266 62.2344 116.434 62.125 115.613 61.9062C114.793 61.6797 114.047 61.3398 113.375 60.8867C112.711 60.4336 112.18 59.8555 111.781 59.1523C111.383 58.4492 111.184 57.6172 111.184 56.6562H114.711C114.711 57.1875 114.793 57.6367 114.957 58.0039C115.121 58.3711 115.352 58.668 115.648 58.8945C115.953 59.1211 116.312 59.2852 116.727 59.3867C117.148 59.4883 117.609 59.5391 118.109 59.5391C118.719 59.5391 119.219 59.4531 119.609 59.2812C120.008 59.1094 120.301 58.8711 120.488 58.5664C120.684 58.2617 120.781 57.918 120.781 57.5352ZM133.32 59.1406V53.4922C133.32 53.0859 133.254 52.7383 133.121 52.4492C132.988 52.1523 132.781 51.9219 132.5 51.7578C132.227 51.5938 131.871 51.5117 131.434 51.5117C131.059 51.5117 130.734 51.5781 130.461 51.7109C130.188 51.8359 129.977 52.0195 129.828 52.2617C129.68 52.4961 129.605 52.7734 129.605 53.0938H126.23C126.23 52.5547 126.355 52.043 126.605 51.5586C126.855 51.0742 127.219 50.6484 127.695 50.2812C128.172 49.9062 128.738 49.6133 129.395 49.4023C130.059 49.1914 130.801 49.0859 131.621 49.0859C132.605 49.0859 133.48 49.25 134.246 49.5781C135.012 49.9062 135.613 50.3984 136.051 51.0547C136.496 51.7109 136.719 52.5312 136.719 53.5156V58.9414C136.719 59.6367 136.762 60.207 136.848 60.6523C136.934 61.0898 137.059 61.4727 137.223 61.8008V62H133.812C133.648 61.6562 133.523 61.2266 133.438 60.7109C133.359 60.1875 133.32 59.6641 133.32 59.1406ZM133.766 54.2773L133.789 56.1875H131.902C131.457 56.1875 131.07 56.2383 130.742 56.3398C130.414 56.4414 130.145 56.5859 129.934 56.7734C129.723 56.9531 129.566 57.1641 129.465 57.4062C129.371 57.6484 129.324 57.9141 129.324 58.2031C129.324 58.4922 129.391 58.7539 129.523 58.9883C129.656 59.2148 129.848 59.3945 130.098 59.5273C130.348 59.6523 130.641 59.7148 130.977 59.7148C131.484 59.7148 131.926 59.6133 132.301 59.4102C132.676 59.207 132.965 58.957 133.168 58.6602C133.379 58.3633 133.488 58.082 133.496 57.8164L134.387 59.2461C134.262 59.5664 134.09 59.8984 133.871 60.2422C133.66 60.5859 133.391 60.9102 133.062 61.2148C132.734 61.5117 132.34 61.7578 131.879 61.9531C131.418 62.1406 130.871 62.2344 130.238 62.2344C129.434 62.2344 128.703 62.0742 128.047 61.7539C127.398 61.4258 126.883 60.9766 126.5 60.4062C126.125 59.8281 125.938 59.1719 125.938 58.4375C125.938 57.7734 126.062 57.1836 126.312 56.668C126.562 56.1523 126.93 55.7188 127.414 55.3672C127.906 55.0078 128.52 54.7383 129.254 54.5586C129.988 54.3711 130.84 54.2773 131.809 54.2773H133.766ZM143.621 62H140.223V48.1953C140.223 47.2344 140.41 46.4258 140.785 45.7695C141.168 45.1055 141.703 44.6055 142.391 44.2695C143.086 43.9258 143.91 43.7539 144.863 43.7539C145.176 43.7539 145.477 43.7773 145.766 43.8242C146.055 43.8633 146.336 43.9141 146.609 43.9766L146.574 46.5195C146.426 46.4805 146.27 46.4531 146.105 46.4375C145.941 46.4219 145.75 46.4141 145.531 46.4141C145.125 46.4141 144.777 46.4844 144.488 46.625C144.207 46.7578 143.992 46.957 143.844 47.2227C143.695 47.4883 143.621 47.8125 143.621 48.1953V62ZM146.152 49.3203V51.7109H138.336V49.3203H146.152ZM153.477 62.2344C152.492 62.2344 151.609 62.0781 150.828 61.7656C150.047 61.4453 149.383 61.0039 148.836 60.4414C148.297 59.8789 147.883 59.2266 147.594 58.4844C147.305 57.7344 147.16 56.9375 147.16 56.0938V55.625C147.16 54.6641 147.297 53.7852 147.57 52.9883C147.844 52.1914 148.234 51.5 148.742 50.9141C149.258 50.3281 149.883 49.8789 150.617 49.5664C151.352 49.2461 152.18 49.0859 153.102 49.0859C154 49.0859 154.797 49.2344 155.492 49.5312C156.188 49.8281 156.77 50.25 157.238 50.7969C157.715 51.3438 158.074 52 158.316 52.7656C158.559 53.5234 158.68 54.3672 158.68 55.2969V56.7031H148.602V54.4531H155.363V54.1953C155.363 53.7266 155.277 53.3086 155.105 52.9414C154.941 52.5664 154.691 52.2695 154.355 52.0508C154.02 51.832 153.59 51.7227 153.066 51.7227C152.621 51.7227 152.238 51.8203 151.918 52.0156C151.598 52.2109 151.336 52.4844 151.133 52.8359C150.938 53.1875 150.789 53.6016 150.688 54.0781C150.594 54.5469 150.547 55.0625 150.547 55.625V56.0938C150.547 56.6016 150.617 57.0703 150.758 57.5C150.906 57.9297 151.113 58.3008 151.379 58.6133C151.652 58.9258 151.98 59.168 152.363 59.3398C152.754 59.5117 153.195 59.5977 153.688 59.5977C154.297 59.5977 154.863 59.4805 155.387 59.2461C155.918 59.0039 156.375 58.6406 156.758 58.1562L158.398 59.9375C158.133 60.3203 157.77 60.6875 157.309 61.0391C156.855 61.3906 156.309 61.6797 155.668 61.9062C155.027 62.125 154.297 62.2344 153.477 62.2344ZM164.164 44V62H160.777V44H164.164ZM170.715 60.5703L174.078 49.3203H177.699L172.602 63.9102C172.492 64.2305 172.344 64.5742 172.156 64.9414C171.977 65.3086 171.73 65.6562 171.418 65.9844C171.113 66.3203 170.727 66.5938 170.258 66.8047C169.797 67.0156 169.23 67.1211 168.559 67.1211C168.238 67.1211 167.977 67.1016 167.773 67.0625C167.57 67.0234 167.328 66.9688 167.047 66.8984V64.4258C167.133 64.4258 167.223 64.4258 167.316 64.4258C167.41 64.4336 167.5 64.4375 167.586 64.4375C168.031 64.4375 168.395 64.3867 168.676 64.2852C168.957 64.1836 169.184 64.0273 169.355 63.8164C169.527 63.6133 169.664 63.3477 169.766 63.0195L170.715 60.5703ZM169.309 49.3203L172.062 58.5078L172.543 62.082L170.246 62.3281L165.688 49.3203H169.309Z" fill="#888888"/>
<path d="M101.822 115.1L108.194 86.0078H111.995L114.061 88.4907L107.271 118H103.074L101.822 115.1ZM100.13 86.0078L105.513 115.319L104.129 118H99.2729L92.4834 86.0078H100.13ZM117.554 115.166L122.894 86.0078H130.518L123.729 118H118.895L117.554 115.166ZM114.742 86.0078L121.268 115.275L119.949 118H115.752L108.809 88.4468L110.962 86.0078H114.742ZM141.021 94.2256V118H133.594V94.2256H141.021ZM133.155 88.0952C133.155 87.0405 133.536 86.1763 134.297 85.5024C135.059 84.8286 136.048 84.4917 137.264 84.4917C138.479 84.4917 139.468 84.8286 140.23 85.5024C140.992 86.1763 141.373 87.0405 141.373 88.0952C141.373 89.1499 140.992 90.0142 140.23 90.688C139.468 91.3618 138.479 91.6987 137.264 91.6987C136.048 91.6987 135.059 91.3618 134.297 90.688C133.536 90.0142 133.155 89.1499 133.155 88.0952ZM153.062 100.114V118H145.657V94.2256H152.579L153.062 100.114ZM160.093 94.0498L159.961 100.927C159.668 100.898 159.273 100.861 158.775 100.817C158.277 100.773 157.859 100.751 157.522 100.751C156.658 100.751 155.911 100.854 155.281 101.059C154.666 101.25 154.153 101.542 153.743 101.938C153.348 102.319 153.055 102.802 152.864 103.388C152.688 103.974 152.608 104.655 152.623 105.432L151.282 104.553C151.282 102.956 151.436 101.506 151.744 100.202C152.066 98.8838 152.52 97.7485 153.106 96.7964C153.692 95.8296 154.402 95.0898 155.237 94.5771C156.072 94.0498 157.01 93.7861 158.05 93.7861C158.416 93.7861 158.775 93.8081 159.126 93.8521C159.493 93.896 159.815 93.9619 160.093 94.0498ZM173.716 118.439C171.783 118.439 170.054 118.139 168.531 117.539C167.007 116.923 165.718 116.081 164.664 115.012C163.624 113.942 162.825 112.712 162.269 111.32C161.727 109.929 161.456 108.457 161.456 106.904V106.069C161.456 104.326 161.697 102.714 162.181 101.235C162.664 99.7407 163.382 98.437 164.334 97.3237C165.286 96.2104 166.48 95.3462 167.916 94.731C169.351 94.1011 171.021 93.7861 172.925 93.7861C174.61 93.7861 176.119 94.0571 177.452 94.5991C178.785 95.1411 179.913 95.9175 180.835 96.9282C181.773 97.939 182.483 99.1621 182.967 100.598C183.465 102.033 183.714 103.645 183.714 105.432V108.442H164.29V103.806H176.485V103.234C176.5 102.443 176.36 101.77 176.067 101.213C175.789 100.656 175.379 100.231 174.837 99.9385C174.295 99.6455 173.636 99.499 172.859 99.499C172.054 99.499 171.387 99.6748 170.86 100.026C170.347 100.378 169.944 100.861 169.651 101.477C169.373 102.077 169.175 102.773 169.058 103.564C168.941 104.355 168.882 105.19 168.882 106.069V106.904C168.882 107.783 169 108.581 169.234 109.299C169.483 110.017 169.834 110.632 170.289 111.145C170.757 111.643 171.314 112.031 171.958 112.309C172.618 112.587 173.365 112.727 174.2 112.727C175.21 112.727 176.207 112.536 177.188 112.155C178.169 111.774 179.012 111.145 179.715 110.266L183.077 114.265C182.593 114.953 181.905 115.62 181.011 116.264C180.132 116.909 179.078 117.436 177.847 117.846C176.617 118.242 175.24 118.439 173.716 118.439ZM195.799 118H188.35V92.292C188.35 90.4463 188.724 88.8936 189.471 87.6338C190.218 86.374 191.272 85.4219 192.635 84.7773C193.997 84.1182 195.608 83.7886 197.469 83.7886C198.113 83.7886 198.721 83.8325 199.292 83.9204C199.864 84.0083 200.42 84.1182 200.962 84.25L200.984 89.6992C200.721 89.626 200.45 89.5747 200.171 89.5454C199.893 89.5161 199.549 89.5015 199.139 89.5015C198.421 89.5015 197.813 89.6113 197.315 89.8311C196.817 90.0361 196.436 90.3511 196.172 90.7759C195.923 91.186 195.799 91.6914 195.799 92.292V118ZM200.413 94.2256V99.3672H184.922V94.2256H200.413ZM210.542 100.114V118H203.138V94.2256H210.059L210.542 100.114ZM217.574 94.0498L217.442 100.927C217.149 100.898 216.753 100.861 216.255 100.817C215.757 100.773 215.34 100.751 215.003 100.751C214.139 100.751 213.392 100.854 212.762 101.059C212.146 101.25 211.634 101.542 211.224 101.938C210.828 102.319 210.535 102.802 210.345 103.388C210.169 103.974 210.088 104.655 210.103 105.432L208.763 104.553C208.763 102.956 208.917 101.506 209.224 100.202C209.546 98.8838 210 97.7485 210.586 96.7964C211.172 95.8296 211.883 95.0898 212.718 94.5771C213.553 94.0498 214.49 93.7861 215.53 93.7861C215.896 93.7861 216.255 93.8081 216.607 93.8521C216.973 93.896 217.295 93.9619 217.574 94.0498ZM231.812 112.023V102.224C231.812 101.55 231.717 100.971 231.526 100.488C231.336 100.004 231.036 99.6309 230.625 99.3672C230.215 99.0889 229.666 98.9497 228.978 98.9497C228.421 98.9497 227.945 99.0449 227.549 99.2354C227.154 99.4258 226.854 99.7114 226.648 100.092C226.443 100.473 226.341 100.957 226.341 101.542H218.936C218.936 100.444 219.178 99.4258 219.661 98.4883C220.159 97.5361 220.862 96.7085 221.771 96.0054C222.693 95.3022 223.792 94.7603 225.066 94.3794C226.355 93.9839 227.791 93.7861 229.373 93.7861C231.263 93.7861 232.947 94.1011 234.427 94.731C235.921 95.3608 237.1 96.3057 237.964 97.5654C238.829 98.8105 239.261 100.378 239.261 102.268V112.001C239.261 113.554 239.349 114.733 239.524 115.539C239.7 116.33 239.949 117.026 240.271 117.626V118H232.845C232.493 117.268 232.229 116.374 232.054 115.319C231.893 114.25 231.812 113.151 231.812 112.023ZM232.713 103.476L232.757 107.431H229.483C228.794 107.431 228.208 107.526 227.725 107.717C227.256 107.907 226.875 108.171 226.583 108.508C226.304 108.83 226.099 109.196 225.967 109.606C225.85 110.017 225.792 110.449 225.792 110.903C225.792 111.342 225.894 111.738 226.099 112.089C226.319 112.426 226.612 112.69 226.978 112.88C227.344 113.071 227.754 113.166 228.208 113.166C229.029 113.166 229.725 113.012 230.296 112.705C230.882 112.382 231.329 111.994 231.636 111.54C231.944 111.086 232.098 110.661 232.098 110.266L233.724 113.298C233.431 113.884 233.094 114.477 232.713 115.078C232.347 115.678 231.885 116.235 231.329 116.748C230.787 117.246 230.12 117.656 229.329 117.978C228.538 118.286 227.579 118.439 226.451 118.439C224.986 118.439 223.638 118.139 222.408 117.539C221.192 116.938 220.218 116.103 219.485 115.034C218.753 113.95 218.387 112.705 218.387 111.298C218.387 110.068 218.606 108.969 219.046 108.002C219.5 107.036 220.181 106.215 221.089 105.542C221.998 104.868 223.155 104.355 224.561 104.003C225.967 103.652 227.623 103.476 229.527 103.476H232.713ZM250.84 99.2573V118H243.436V94.2256H250.379L250.84 99.2573ZM249.939 105.3L248.248 105.344C248.248 103.674 248.445 102.136 248.841 100.729C249.236 99.3232 249.822 98.1001 250.599 97.0601C251.375 96.02 252.327 95.2144 253.455 94.6431C254.598 94.0718 255.916 93.7861 257.41 93.7861C258.45 93.7861 259.395 93.9473 260.245 94.2695C261.094 94.5771 261.827 95.0679 262.442 95.7417C263.057 96.4009 263.526 97.2651 263.848 98.3345C264.185 99.3892 264.354 100.656 264.354 102.136V118H256.949V103.081C256.949 102.07 256.832 101.308 256.597 100.795C256.377 100.283 256.055 99.9385 255.63 99.7627C255.206 99.5869 254.686 99.499 254.07 99.499C253.426 99.499 252.847 99.6455 252.334 99.9385C251.822 100.231 251.382 100.642 251.016 101.169C250.665 101.682 250.394 102.29 250.203 102.993C250.027 103.696 249.939 104.465 249.939 105.3ZM263.519 105.3L261.453 105.344C261.453 103.674 261.636 102.136 262.002 100.729C262.383 99.3232 262.947 98.1001 263.694 97.0601C264.456 96.02 265.401 95.2144 266.529 94.6431C267.657 94.0718 268.968 93.7861 270.462 93.7861C271.546 93.7861 272.542 93.9473 273.45 94.2695C274.358 94.5918 275.142 95.1118 275.801 95.8296C276.46 96.5474 276.973 97.4995 277.339 98.686C277.706 99.8579 277.889 101.308 277.889 103.037V118H270.462V103.037C270.462 102.055 270.345 101.315 270.11 100.817C269.891 100.305 269.568 99.9604 269.144 99.7847C268.719 99.5942 268.213 99.499 267.627 99.499C266.924 99.499 266.316 99.6455 265.804 99.9385C265.291 100.231 264.859 100.642 264.507 101.169C264.17 101.682 263.921 102.29 263.76 102.993C263.599 103.696 263.519 104.465 263.519 105.3ZM293.643 118.439C291.709 118.439 289.981 118.139 288.458 117.539C286.934 116.923 285.645 116.081 284.59 115.012C283.55 113.942 282.752 112.712 282.195 111.32C281.653 109.929 281.382 108.457 281.382 106.904V106.069C281.382 104.326 281.624 102.714 282.107 101.235C282.591 99.7407 283.309 98.437 284.261 97.3237C285.213 96.2104 286.407 95.3462 287.842 94.731C289.278 94.1011 290.948 93.7861 292.852 93.7861C294.537 93.7861 296.045 94.0571 297.378 94.5991C298.711 95.1411 299.839 95.9175 300.762 96.9282C301.7 97.939 302.41 99.1621 302.894 100.598C303.392 102.033 303.641 103.645 303.641 105.432V108.442H284.217V103.806H296.412V103.234C296.426 102.443 296.287 101.77 295.994 101.213C295.716 100.656 295.306 100.231 294.764 99.9385C294.222 99.6455 293.562 99.499 292.786 99.499C291.98 99.499 291.314 99.6748 290.787 100.026C290.274 100.378 289.871 100.861 289.578 101.477C289.3 102.077 289.102 102.773 288.985 103.564C288.868 104.355 288.809 105.19 288.809 106.069V106.904C288.809 107.783 288.926 108.581 289.161 109.299C289.41 110.017 289.761 110.632 290.215 111.145C290.684 111.643 291.241 112.031 291.885 112.309C292.544 112.587 293.292 112.727 294.126 112.727C295.137 112.727 296.133 112.536 297.115 112.155C298.096 111.774 298.938 111.145 299.642 110.266L303.003 114.265C302.52 114.953 301.832 115.62 300.938 116.264C300.059 116.909 299.004 117.436 297.774 117.846C296.543 118.242 295.167 118.439 293.643 118.439ZM319.109 111.32C319.109 110.91 318.97 110.559 318.692 110.266C318.428 109.958 317.959 109.68 317.286 109.431C316.612 109.167 315.667 108.903 314.451 108.64C313.294 108.391 312.203 108.061 311.177 107.651C310.167 107.241 309.28 106.743 308.519 106.157C307.757 105.571 307.156 104.875 306.717 104.069C306.292 103.264 306.08 102.341 306.08 101.301C306.08 100.29 306.292 99.3379 306.717 98.4443C307.156 97.5361 307.793 96.7378 308.628 96.0493C309.478 95.3462 310.511 94.7969 311.727 94.4014C312.942 93.9912 314.327 93.7861 315.879 93.7861C318.018 93.7861 319.864 94.1157 321.417 94.7749C322.969 95.4194 324.163 96.3276 324.998 97.4995C325.848 98.6567 326.272 99.9971 326.272 101.521H318.868C318.868 100.92 318.765 100.407 318.56 99.9824C318.37 99.5576 318.055 99.2354 317.615 99.0156C317.176 98.7812 316.59 98.6641 315.857 98.6641C315.345 98.6641 314.876 98.7593 314.451 98.9497C314.041 99.1401 313.711 99.4038 313.462 99.7407C313.213 100.078 313.089 100.473 313.089 100.927C313.089 101.25 313.162 101.542 313.309 101.806C313.47 102.055 313.711 102.29 314.034 102.509C314.356 102.714 314.766 102.905 315.264 103.081C315.762 103.242 316.363 103.388 317.066 103.52C318.663 103.813 320.157 104.23 321.548 104.772C322.94 105.314 324.068 106.083 324.932 107.08C325.811 108.076 326.25 109.416 326.25 111.101C326.25 112.155 326.009 113.129 325.525 114.023C325.042 114.902 324.346 115.678 323.438 116.352C322.53 117.011 321.438 117.524 320.164 117.89C318.89 118.256 317.454 118.439 315.857 118.439C313.587 118.439 311.668 118.037 310.101 117.231C308.533 116.411 307.347 115.385 306.541 114.155C305.75 112.91 305.354 111.65 305.354 110.375H312.254C312.283 111.108 312.459 111.708 312.781 112.177C313.118 112.646 313.565 112.99 314.122 113.21C314.678 113.43 315.323 113.54 316.055 113.54C316.729 113.54 317.286 113.444 317.725 113.254C318.179 113.063 318.523 112.807 318.758 112.485C318.992 112.148 319.109 111.76 319.109 111.32Z" fill="#424241"/>
<path d="M1363 15C1363 6.71573 1356.28 0 1348 0H1134V167H1348C1356.28 167 1363 160.284 1363 152V15Z" fill="#0BA3D3" fill-opacity="0.65"/>
<path fill-rule="evenodd" clip-rule="evenodd" d="M1203 49C1203 47.8954 1203.9 47 1205 47H1292.5C1293.6 47 1294.5 47.8954 1294.5 49V118.996C1294.5 120.101 1293.6 120.996 1292.5 120.996H1205C1203.9 120.996 1203 120.101 1203 118.996V49ZM1207 51V55.4945H1290.5V51H1207ZM1290.5 59.4945H1235.44V116.996H1290.5V59.4945ZM1231.44 116.996V59.4945H1207V116.996H1231.44Z" fill="white"/>
<path fill-rule="evenodd" clip-rule="evenodd" d="M1209.97 64.8004C1209.97 63.6958 1210.87 62.8004 1211.97 62.8004H1225.97C1227.08 62.8004 1227.97 63.6958 1227.97 64.8004V84.1956C1227.97 85.3001 1227.08 86.1956 1225.97 86.1956H1211.97C1210.87 86.1956 1209.97 85.3001 1209.97 84.1956V64.8004ZM1213.97 66.8004V82.1956H1223.97V66.8004H1213.97ZM1239.58 65.6964C1239.58 64.5918 1240.47 63.6964 1241.58 63.6964H1284.5C1285.61 63.6964 1286.5 64.5918 1286.5 65.6964V111.905C1286.5 113.01 1285.61 113.905 1284.5 113.905H1241.58C1240.47 113.905 1239.58 113.01 1239.58 111.905V65.6964ZM1243.58 67.6964V109.905H1282.5V67.6964H1243.58ZM1209.81 95.9363C1209.81 94.8317 1210.71 93.9363 1211.81 93.9363H1220.73C1221.84 93.9363 1222.73 94.8317 1222.73 95.9363C1222.73 97.0409 1221.84 97.9363 1220.73 97.9363H1211.81C1210.71 97.9363 1209.81 97.0409 1209.81 95.9363ZM1209.81 102.936C1209.81 101.832 1210.71 100.936 1211.81 100.936H1226.35C1227.46 100.936 1228.35 101.832 1228.35 102.936C1228.35 104.041 1227.46 104.936 1226.35 104.936H1211.81C1210.71 104.936 1209.81 104.041 1209.81 102.936ZM1209.81 109.936C1209.81 108.832 1210.71 107.936 1211.81 107.936H1220.73C1221.84 107.936 1222.73 108.832 1222.73 109.936C1222.73 111.041 1221.84 111.936 1220.73 111.936H1211.81C1210.71 111.936 1209.81 111.041 1209.81 109.936Z" fill="white"/>
</svg>
